<?xml version="1.0" encoding="utf-8"?>
<!-- Generator: Adobe Illustrator 16.0.0, SVG Export Plug-In . SVG Version: 6.00 Build 0)  -->
<!DOCTYPE svg PUBLIC "-//W3C//DTD SVG 1.1//EN" "http://www.w3.org/Graphics/SVG/1.1/DTD/svg11.dtd">
<svg version="1.1" id="Layer_1" xmlns="http://www.w3.org/2000/svg" xmlns:xlink="http://www.w3.org/1999/xlink" x="0px" y="0px"
	 width="80px" height="100px" viewBox="0 0 80 100" enable-background="new 0 0 80 100" xml:space="preserve">
<g>
	<g>
		<g>
			<g>
				<path fill="#B8352D" d="M15.45,14.422c-0.259-0.267-0.576-0.586-0.827-0.882c-0.006,0.004-0.008,0.005-0.013,0.009
					c0.146,0.34,0.296,0.726,0.426,1.098c0.185,0.505,0.28,0.755,0.478,1.251c-0.137,0.127-0.206,0.191-0.341,0.319
					c-0.467-0.234-0.702-0.35-1.177-0.574c-0.351-0.17-0.716-0.362-1.037-0.551c-0.002,0.003-0.005,0.005-0.007,0.008
					c0.254,0.278,0.561,0.616,0.82,0.913c0.304,0.351,0.457,0.525,0.763,0.874c-0.161,0.159-0.242,0.241-0.4,0.405
					c-0.764-0.864-1.145-1.299-1.898-2.175c0.244-0.249,0.366-0.371,0.614-0.611c0.457,0.2,0.684,0.304,1.135,0.513
					c0.322,0.159,0.633,0.335,0.915,0.512c0.005-0.004,0.006-0.007,0.011-0.011c-0.146-0.29-0.303-0.628-0.432-0.968
					c-0.171-0.47-0.254-0.706-0.413-1.18c0.251-0.226,0.379-0.337,0.636-0.557c0.809,0.824,1.21,1.237,2.012,2.068
					c-0.178,0.151-0.267,0.227-0.443,0.381C15.943,14.927,15.779,14.759,15.45,14.422z"/>
				<path fill="#B8352D" d="M16.049,11.992c0.098,0.121,0.064,0.307-0.109,0.446c-0.165,0.132-0.352,0.125-0.451,0.002
					c-0.104-0.125-0.068-0.314,0.1-0.449C15.762,11.854,15.949,11.868,16.049,11.992z M17.197,14.482
					c-0.525-0.645-0.788-0.968-1.313-1.614c0.198-0.16,0.297-0.24,0.496-0.397c0.515,0.654,0.771,0.982,1.285,1.636
					C17.476,14.256,17.383,14.331,17.197,14.482z"/>
				<path fill="#B8352D" d="M16.339,11.299c0.207-0.157,0.31-0.235,0.519-0.387c0.715,0.98,1.073,1.47,1.789,2.451
					c-0.193,0.14-0.289,0.21-0.478,0.355C17.438,12.75,17.071,12.267,16.339,11.299z"/>
				<path fill="#B8352D" d="M18.189,10.43c0.089,0.127,0.043,0.311-0.137,0.435c-0.171,0.12-0.355,0.099-0.446-0.03
					c-0.094-0.134-0.047-0.319,0.127-0.44C17.913,10.271,18.098,10.299,18.189,10.43z M19.164,12.991
					c-0.478-0.681-0.717-1.021-1.195-1.703c0.206-0.144,0.309-0.216,0.517-0.357c0.467,0.688,0.699,1.033,1.167,1.723
					C19.456,12.786,19.357,12.854,19.164,12.991z"/>
				<path fill="#B8352D" d="M19.324,9.675c0.126,0.202,0.189,0.302,0.314,0.503c0.199-0.125,0.299-0.186,0.5-0.308
					c0.082,0.135,0.123,0.202,0.203,0.337c-0.198,0.12-0.297,0.181-0.495,0.304c0.195,0.312,0.292,0.467,0.487,0.778
					c0.133,0.214,0.268,0.285,0.46,0.167c0.086-0.053,0.145-0.103,0.183-0.143c0.087,0.136,0.129,0.204,0.216,0.339
					c-0.058,0.07-0.176,0.167-0.333,0.265c-0.181,0.112-0.369,0.154-0.518,0.125c-0.168-0.034-0.32-0.16-0.468-0.389
					c-0.213-0.328-0.319-0.493-0.532-0.821c-0.118,0.075-0.176,0.115-0.292,0.191c-0.087-0.131-0.13-0.196-0.217-0.327
					c0.119-0.079,0.177-0.118,0.295-0.194c-0.103-0.158-0.153-0.236-0.254-0.394C19.052,9.934,19.142,9.847,19.324,9.675z"/>
				<path fill="#B8352D" d="M22.718,10.793c-0.058-0.075-0.086-0.112-0.142-0.185c-0.005,0.003-0.008,0.004-0.013,0.006
					c-0.047,0.212-0.203,0.427-0.461,0.572c-0.402,0.229-0.78,0.102-0.941-0.17c-0.267-0.452,0.056-0.96,0.833-1.376
					c-0.007-0.012-0.009-0.018-0.016-0.029c-0.065-0.121-0.23-0.29-0.602-0.083c-0.208,0.115-0.391,0.295-0.487,0.455
					c-0.109-0.095-0.165-0.141-0.275-0.235c0.108-0.173,0.336-0.409,0.672-0.596c0.683-0.379,1.079-0.1,1.289,0.301
					c0.138,0.268,0.207,0.401,0.347,0.668c0.086,0.167,0.179,0.325,0.258,0.429C22.994,10.646,22.902,10.693,22.718,10.793z
					 M22.169,9.934c-0.376,0.193-0.686,0.464-0.53,0.739c0.102,0.178,0.276,0.187,0.439,0.096c0.204-0.113,0.287-0.317,0.263-0.472
					c-0.005-0.04-0.02-0.08-0.036-0.11C22.25,10.085,22.224,10.034,22.169,9.934z"/>
				<path fill="#B8352D" d="M23.067,9.024c-0.126-0.252-0.22-0.429-0.317-0.591c0.19-0.095,0.287-0.142,0.478-0.234
					c0.077,0.14,0.114,0.21,0.189,0.35c0.008-0.004,0.012-0.005,0.019-0.008c-0.021-0.317,0.171-0.573,0.406-0.681
					c0.054-0.024,0.087-0.035,0.136-0.047c0.082,0.18,0.123,0.27,0.205,0.451c-0.049,0.012-0.102,0.026-0.168,0.058
					c-0.263,0.121-0.372,0.354-0.317,0.587c0.011,0.046,0.026,0.1,0.053,0.154c0.185,0.388,0.277,0.583,0.463,0.971
					c-0.208,0.099-0.312,0.151-0.518,0.253C23.444,9.781,23.319,9.529,23.067,9.024z"/>
				<path fill="#B8352D" d="M24.815,7.481c0.335,0.342,0.499,0.515,0.825,0.864c0.093,0.101,0.196,0.228,0.272,0.328
					c0.005-0.002,0.008-0.003,0.013-0.005c-0.009-0.125-0.027-0.284-0.039-0.426c-0.031-0.466-0.044-0.701-0.065-1.169
					c0.242-0.094,0.364-0.141,0.607-0.23c-0.028,0.615-0.036,0.921-0.047,1.535c-0.015,0.839-0.078,1.238-0.236,1.535
					c-0.134,0.25-0.313,0.406-0.437,0.478c-0.118-0.143-0.176-0.213-0.294-0.356c0.08-0.058,0.169-0.153,0.246-0.265
					c0.069-0.1,0.138-0.265,0.159-0.424c0.005-0.044,0.008-0.077-0.002-0.1c-0.008-0.021-0.024-0.046-0.07-0.083
					c-0.602-0.576-0.912-0.859-1.544-1.415C24.448,7.639,24.57,7.586,24.815,7.481z"/>
				<path d="M28.714,8.256c-0.64-1.005-0.971-1.502-1.659-2.486c0.25-0.083,0.375-0.125,0.625-0.205
					c0.283,0.458,0.422,0.688,0.696,1.149c0.184,0.31,0.365,0.638,0.498,0.897c0.004-0.001,0.006-0.001,0.01-0.002
					c-0.039-0.306-0.052-0.659-0.069-1.033c-0.014-0.54-0.019-0.81-0.023-1.351c0.249-0.071,0.372-0.106,0.621-0.173
					c0.268,0.475,0.399,0.715,0.659,1.195c0.166,0.31,0.31,0.604,0.433,0.895c0.002,0,0.005-0.001,0.008-0.003
					c-0.024-0.32-0.031-0.657-0.031-1.018c0.005-0.539,0.011-0.808,0.024-1.347c0.243-0.059,0.365-0.086,0.608-0.139
					c-0.103,1.201-0.141,1.802-0.188,2.999c-0.236,0.058-0.355,0.088-0.59,0.151c-0.264-0.49-0.398-0.735-0.671-1.222
					c-0.167-0.294-0.297-0.543-0.419-0.833c-0.003,0.001-0.006,0.001-0.01,0.002c0.027,0.313,0.041,0.597,0.04,0.94
					c0.005,0.562,0.011,0.843,0.029,1.403C29.067,8.146,28.949,8.183,28.714,8.256z"/>
				<path d="M32.064,4.66c0.033,0.151-0.077,0.3-0.283,0.343c-0.197,0.042-0.354-0.052-0.387-0.206
					c-0.034-0.16,0.077-0.31,0.278-0.351C31.877,4.404,32.031,4.502,32.064,4.66z M31.987,7.391
					c-0.175-0.814-0.262-1.221-0.437-2.034c0.236-0.051,0.354-0.075,0.592-0.122c0.161,0.815,0.242,1.224,0.402,2.041
					C32.323,7.321,32.21,7.343,31.987,7.391z"/>
				<path d="M34.825,3.85c0.116,0.972,0.174,1.457,0.29,2.43c0.026,0.212,0.063,0.439,0.088,0.578
					c-0.201,0.024-0.301,0.038-0.501,0.063c-0.026-0.128-0.04-0.192-0.066-0.322C34.632,6.6,34.629,6.6,34.626,6.6
					c-0.103,0.246-0.351,0.426-0.673,0.476c-0.527,0.082-1.017-0.259-1.134-0.887c-0.128-0.682,0.284-1.182,0.847-1.269
					c0.323-0.049,0.572,0.038,0.698,0.174c0.004,0,0.006,0,0.009,0c-0.063-0.467-0.094-0.701-0.159-1.168
					C34.46,3.895,34.582,3.878,34.825,3.85z M34.461,5.729c-0.005-0.041-0.018-0.093-0.033-0.132
					c-0.076-0.195-0.29-0.335-0.556-0.296c-0.376,0.056-0.537,0.387-0.473,0.77c0.063,0.375,0.311,0.615,0.669,0.561
					c0.229-0.035,0.407-0.212,0.437-0.438c0.006-0.047,0.005-0.1-0.001-0.154C34.486,5.916,34.478,5.853,34.461,5.729z"/>
				<path d="M37.865,5.585c0.03,0.764-0.532,1.129-1.099,1.171c-0.63,0.047-1.157-0.304-1.227-0.966
					c-0.073-0.679,0.392-1.153,1.105-1.205C37.349,4.534,37.839,4.953,37.865,5.585z M36.135,5.719
					c0.036,0.399,0.275,0.682,0.622,0.657c0.323-0.024,0.533-0.331,0.508-0.749c-0.019-0.324-0.203-0.688-0.607-0.658
					C36.24,5,36.104,5.374,36.135,5.719z"/>
				<path d="M38.635,4.541c0.106,0.375,0.158,0.563,0.259,0.938c0.055,0.223,0.109,0.448,0.152,0.675c0.003,0,0.006,0,0.01,0
					c0.044-0.227,0.118-0.459,0.184-0.672c0.119-0.379,0.18-0.569,0.303-0.947c0.196,0,0.293,0.001,0.495,0.006
					c0.113,0.37,0.166,0.556,0.271,0.928c0.066,0.245,0.119,0.474,0.164,0.701c0.004,0,0.006,0,0.008,0
					c0.045-0.225,0.104-0.45,0.176-0.691c0.115-0.365,0.172-0.547,0.285-0.911c0.236,0.009,0.354,0.015,0.588,0.029
					c-0.346,0.813-0.51,1.222-0.814,2.042c-0.209-0.008-0.314-0.012-0.523-0.017c-0.098-0.34-0.148-0.51-0.252-0.851
					c-0.073-0.218-0.122-0.416-0.174-0.668c-0.004,0-0.006,0-0.01,0c-0.051,0.255-0.116,0.46-0.181,0.665
					c-0.119,0.338-0.177,0.507-0.29,0.846c-0.211,0-0.317,0.001-0.527,0.006c-0.279-0.829-0.425-1.241-0.734-2.063
					C38.267,4.549,38.39,4.545,38.635,4.541z"/>
				<path d="M41.721,6.208c0.125,0.082,0.363,0.176,0.566,0.193c0.248,0.02,0.369-0.063,0.383-0.199
					c0.012-0.14-0.074-0.222-0.348-0.334c-0.432-0.178-0.607-0.411-0.59-0.651c0.029-0.362,0.389-0.632,0.938-0.583
					c0.262,0.023,0.48,0.106,0.611,0.184c-0.064,0.143-0.092,0.214-0.154,0.358c-0.094-0.062-0.275-0.148-0.482-0.167
					c-0.211-0.019-0.334,0.063-0.344,0.189c-0.01,0.133,0.098,0.203,0.381,0.324c0.4,0.173,0.574,0.391,0.543,0.695
					c-0.037,0.371-0.383,0.608-0.973,0.56c-0.27-0.023-0.508-0.1-0.666-0.195C41.641,6.433,41.664,6.358,41.721,6.208z"/>
				<path d="M45.336,6.296c-0.162,0.304-0.242,0.456-0.398,0.762c-0.232-0.037-0.346-0.054-0.578-0.088
					c0.559-1.083,0.854-1.621,1.473-2.683c0.309,0.053,0.461,0.082,0.768,0.142c0.211,1.213,0.299,1.819,0.439,3.031
					c-0.236-0.053-0.355-0.079-0.594-0.126c-0.047-0.342-0.068-0.514-0.117-0.856C45.934,6.399,45.732,6.362,45.336,6.296z
					 M46.307,6.068c-0.043-0.298-0.066-0.447-0.117-0.744c-0.029-0.183-0.047-0.387-0.064-0.56c-0.006,0-0.008,0-0.01,0
					c-0.08,0.154-0.162,0.344-0.25,0.5c-0.148,0.262-0.223,0.393-0.369,0.656C45.82,5.976,45.982,6.006,46.307,6.068z"/>
				<path d="M47.506,7.071c0.111,0.101,0.332,0.233,0.529,0.283c0.246,0.06,0.377-0.001,0.412-0.133
					c0.037-0.136-0.037-0.232-0.289-0.388c-0.4-0.247-0.533-0.505-0.477-0.74c0.086-0.354,0.486-0.56,1.023-0.421
					c0.256,0.065,0.463,0.184,0.574,0.281c-0.084,0.131-0.125,0.198-0.209,0.329c-0.084-0.077-0.252-0.191-0.451-0.244
					c-0.207-0.054-0.342,0.006-0.373,0.129c-0.033,0.129,0.063,0.216,0.324,0.381c0.371,0.238,0.508,0.481,0.43,0.776
					c-0.1,0.361-0.482,0.537-1.061,0.391c-0.264-0.066-0.486-0.18-0.629-0.302C47.387,7.278,47.426,7.209,47.506,7.071z"/>
				<path d="M49.395,7.568c0.104,0.106,0.32,0.25,0.518,0.312c0.238,0.075,0.377,0.021,0.416-0.109
					c0.043-0.135-0.023-0.233-0.268-0.403c-0.389-0.268-0.51-0.534-0.439-0.765c0.107-0.348,0.518-0.533,1.049-0.365
					c0.252,0.081,0.453,0.211,0.561,0.316c-0.092,0.125-0.137,0.189-0.227,0.314c-0.082-0.081-0.24-0.206-0.439-0.269
					c-0.203-0.064-0.342-0.012-0.379,0.11c-0.039,0.126,0.049,0.22,0.303,0.399c0.359,0.257,0.482,0.509,0.387,0.798
					c-0.117,0.355-0.512,0.51-1.08,0.333c-0.264-0.081-0.479-0.208-0.615-0.336C49.264,7.768,49.309,7.701,49.395,7.568z"/>
				<path d="M53.543,8.442c-0.297,0.703-0.973,0.788-1.512,0.58c-0.596-0.231-0.926-0.773-0.707-1.403
					c0.227-0.645,0.855-0.873,1.529-0.61C53.521,7.268,53.793,7.86,53.543,8.442z M51.902,7.812
					c-0.141,0.377-0.041,0.735,0.285,0.862c0.307,0.12,0.631-0.066,0.789-0.454c0.121-0.301,0.109-0.71-0.273-0.858
					C52.307,7.208,52.021,7.487,51.902,7.812z"/>
				<path d="M55.107,10.261c-0.133-0.009-0.371-0.065-0.629-0.188c-0.643-0.306-0.9-0.867-0.643-1.458
					c0.25-0.571,0.902-0.825,1.668-0.457c0.199,0.098,0.389,0.236,0.486,0.349c-0.109,0.121-0.164,0.182-0.273,0.302
					c-0.07-0.077-0.178-0.179-0.373-0.272c-0.416-0.2-0.789-0.042-0.943,0.302c-0.174,0.388,0,0.737,0.359,0.91
					c0.184,0.088,0.326,0.118,0.449,0.13C55.168,10.031,55.148,10.107,55.107,10.261z"/>
				<path d="M57.264,8.456c-0.068,0.138-0.25,0.184-0.443,0.083c-0.182-0.095-0.246-0.268-0.172-0.408
					c0.074-0.146,0.258-0.19,0.443-0.092C57.281,8.138,57.338,8.313,57.264,8.456z M55.461,10.512
					c0.379-0.739,0.57-1.109,0.953-1.849c0.219,0.113,0.33,0.17,0.545,0.288c-0.393,0.732-0.588,1.1-0.982,1.833
					C55.77,10.673,55.668,10.619,55.461,10.512z"/>
				<path d="M57.639,11.738c0.035-0.086,0.053-0.131,0.088-0.217c-0.004-0.003-0.008-0.004-0.012-0.007
					c-0.207,0.064-0.473,0.038-0.729-0.112c-0.402-0.231-0.48-0.622-0.326-0.898c0.252-0.459,0.852-0.438,1.607,0.025
					c0.006-0.011,0.01-0.017,0.016-0.029c0.07-0.117,0.135-0.346-0.232-0.563c-0.205-0.122-0.453-0.189-0.639-0.19
					c0.025-0.144,0.037-0.214,0.063-0.357c0.203,0.006,0.521,0.083,0.855,0.281c0.674,0.399,0.637,0.885,0.395,1.268
					c-0.16,0.255-0.24,0.382-0.4,0.636c-0.1,0.159-0.188,0.32-0.236,0.441C57.908,11.903,57.818,11.848,57.639,11.738z
					 M58.102,10.829c-0.359-0.228-0.748-0.358-0.904-0.084c-0.104,0.177-0.021,0.333,0.139,0.427
					c0.201,0.119,0.42,0.089,0.541-0.009c0.031-0.025,0.059-0.06,0.078-0.089C58.014,10.976,58.041,10.927,58.102,10.829z"/>
				<path d="M60.619,10.479c-0.135,0.197-0.201,0.294-0.336,0.491c0.197,0.134,0.295,0.201,0.488,0.338
					c-0.092,0.128-0.137,0.194-0.227,0.323c-0.193-0.137-0.289-0.204-0.482-0.336c-0.205,0.304-0.309,0.457-0.516,0.76
					c-0.143,0.208-0.152,0.361,0.035,0.49c0.082,0.059,0.152,0.092,0.203,0.113c-0.088,0.134-0.135,0.2-0.221,0.334
					c-0.09-0.025-0.227-0.096-0.381-0.201c-0.176-0.122-0.291-0.276-0.324-0.425c-0.035-0.168,0.02-0.358,0.168-0.585
					c0.215-0.328,0.322-0.491,0.539-0.819c-0.117-0.077-0.176-0.114-0.293-0.19c0.086-0.133,0.127-0.199,0.211-0.331
					c0.121,0.077,0.176,0.115,0.297,0.192c0.102-0.157,0.154-0.236,0.258-0.393C60.271,10.334,60.389,10.382,60.619,10.479z"/>
				<path d="M62.041,11.515c-0.094,0.125-0.281,0.141-0.457,0.011c-0.168-0.125-0.209-0.307-0.117-0.435
					c0.096-0.131,0.285-0.147,0.457-0.02C62.1,11.201,62.135,11.385,62.041,11.515z M59.936,13.269
					c0.49-0.674,0.732-1.012,1.219-1.686c0.205,0.148,0.307,0.223,0.508,0.374c-0.5,0.667-0.746,1-1.246,1.665
					C60.225,13.479,60.129,13.409,59.936,13.269z"/>
				<path d="M63.35,14.655c-0.508,0.572-1.191,0.418-1.654,0.036c-0.516-0.426-0.674-1.057-0.266-1.586
					c0.416-0.541,1.1-0.547,1.68-0.063C63.686,13.519,63.771,14.182,63.35,14.655z M61.932,13.487
					c-0.248,0.313-0.264,0.689,0.02,0.923c0.262,0.219,0.637,0.153,0.91-0.165c0.209-0.248,0.322-0.644-0.006-0.917
					C62.512,13.045,62.148,13.217,61.932,13.487z"/>
				<path d="M64,14.699c0.162-0.177,0.293-0.329,0.402-0.472c0.164,0.151,0.248,0.228,0.412,0.382
					c-0.076,0.099-0.115,0.149-0.191,0.248c0.002,0.005,0.008,0.007,0.012,0.01c0.189-0.042,0.527,0.004,0.83,0.302
					c0.316,0.312,0.471,0.808-0.002,1.266c-0.357,0.343-0.533,0.516-0.887,0.858c-0.17-0.176-0.258-0.263-0.43-0.435
					c0.332-0.332,0.5-0.498,0.832-0.831c0.209-0.212,0.275-0.469,0.027-0.71c-0.184-0.177-0.416-0.188-0.57-0.12
					c-0.047,0.021-0.094,0.063-0.137,0.107c-0.336,0.355-0.502,0.534-0.836,0.888c-0.18-0.167-0.27-0.25-0.447-0.414
					C63.408,15.347,63.605,15.131,64,14.699z"/>
			</g>
		</g>
		<g>
			<path d="M67.654,38.194c0.344,1.067,0.99,1.435,2.133,1.368c1.621-0.093,3.281-0.244,4.879,0.255
				c0.48,0.151,1.18,0.257,1.158,0.848c-0.021,0.566-0.703,0.674-1.199,0.825c-1.564,0.479-3.174,0.309-4.764,0.259
				c-1.051-0.034-1.893,0.07-2.191,1.375c0.338,0.09,1.055-0.089,0.865,0.711c-0.184,0.785-0.768,0.479-1.143,0.352
				c-0.566-0.192-0.701,0.169-0.916,0.493c-0.994,1.493-1.986,2.989-2.988,4.478c-0.33,0.483-0.668,0.984-1.463,0.877
				c0.682-1.936,1.334-3.794,1.992-5.649c0.051-0.147,0.176-0.27,0.225-0.417c0.566-1.708,0.209-2.055-1.512-2.28
				c-1.805-0.236-3.27-0.194-3.902,1.866c-0.1,0.315-0.449,0.514-0.787,0.343c-0.342-0.172-0.053-0.499-0.053-0.75
				c0-0.233,0.094-0.469,0.152-0.701c0.217-0.822,0.336-1.598-1.006-1.748c1.703-0.405,1.043-1.46,0.9-2.393
				c-0.045-0.294-0.404-0.729,0.109-0.918c0.428-0.156,0.654,0.202,0.793,0.545c0.617,1.518,1.613,2.257,3.293,1.652
				c0.145-0.05,0.318-0.013,0.479-0.016c1.777-0.029,2.156-0.715,1.471-2.451c-0.699-1.773-1.307-3.58-1.961-5.371
				C62.17,31.606,62,31.479,62.143,31.33c0.162-0.168,0.365-0.101,0.553-0.024c0.434,0.18,0.664,0.565,0.906,0.93
				c0.949,1.425,1.895,2.856,2.828,4.293c0.268,0.412,0.471,0.795,1.109,0.565c0.346-0.122,0.898-0.304,1.012,0.415
				C68.682,38.308,68.014,38.055,67.654,38.194z"/>
			<path fill="#656565" d="M38.006,44.355"/>
			<path fill="#656565" d="M38.006,44.355"/>
			<path d="M55.154,39.991c-4.135,0-8.27,0-12.406,0c0-0.04,0-0.08,0-0.121c4.137,0,8.273,0,12.412,0
				C55.16,39.911,55.158,39.951,55.154,39.991z"/>
			<path d="M44.434,37.92c4.057,0,8.111,0,12.168,0c0,0.04,0,0.08,0,0.12c-4.059,0-8.115,0-12.174,0
				C44.43,38,44.432,37.96,44.434,37.92z"/>
			<path d="M56.574,42.624c-3.654,0-7.311,0-10.965,0c0-0.039,0-0.078,0-0.119c3.67,0,7.342,0,11.01,0
				C56.604,42.546,56.59,42.585,56.574,42.624z"/>
			<path fill="#656565" d="M45.213,30.679c-0.234-0.002-0.469-0.003-0.705-0.007"/>
			<path fill="#656565" d="M45.213,30.679c-0.234-0.002-0.469-0.003-0.705-0.007"/>
			<path fill="#656565" d="M45.977,53.953c-0.01,0-0.02-0.006-0.027-0.01c0.004,0,0.008-0.002,0.016-0.004L45.977,53.953z"/>
			<path fill="#656565" d="M49.602,53.68c-0.01,0.006-0.02,0.01-0.029,0.018l-0.004-0.018H49.602z"/>
			<path fill="#656565" d="M49.572,53.697c-0.004-0.004-0.012-0.004-0.014-0.006c0.002-0.002,0.004-0.006,0.01-0.012L49.572,53.697z
				"/>
			<g>
				<path d="M52.807,22.041c0-0.258-0.033-0.506-0.1-0.743h10.957v-1.32H51.902c-0.377-0.348-0.855-0.592-1.43-0.69
					c0-0.357,0-0.607,0-0.607v-0.018c0-0.015,0.023-0.018,0.023-0.032c-0.02-0.767-0.623-1.373-1.396-1.373h-5.803v2.308
					c-0.908,0.473-1.471,1.405-1.471,2.475c0,0.01,0.008,0.021,0.008,0.031c0.172-0.021,0.35-0.031,0.527-0.031H52.807z"/>
				<path d="M60.943,29.687v-0.022c1.484-0.247,2.637-1.53,2.637-3.097v-0.026c0-1.747-1.389-3.182-3.133-3.182H42.361
					c-1.738,0-3.188,1.435-3.188,3.181v0.027c0,1.567,1.163,2.851,2.639,3.097v0.022c0,0.487,0.145,0.943,0.371,1.337
					c0.461,0.792,1.334,1.324,2.313,1.324h13.814c0.98,0,1.824-0.533,2.283-1.324C60.826,30.63,60.943,30.174,60.943,29.687z
					 M53.641,30.967c-0.74,0-1.342-0.601-1.342-1.34c0-0.743,0.602-1.341,1.342-1.341s1.34,0.598,1.34,1.341
					C54.98,30.366,54.381,30.967,53.641,30.967z M47.764,29.627c0-0.743,0.6-1.341,1.34-1.341s1.342,0.598,1.342,1.341
					c0,0.739-0.602,1.34-1.342,1.34S47.764,30.366,47.764,29.627z M43.229,29.627c0-0.743,0.6-1.341,1.34-1.341
					s1.34,0.598,1.34,1.341c0,0.739-0.6,1.34-1.34,1.34S43.229,30.366,43.229,29.627z M58.174,30.967c-0.74,0-1.34-0.601-1.34-1.34
					c0-0.743,0.6-1.341,1.34-1.341c0.742,0,1.342,0.598,1.342,1.341C59.516,30.366,58.916,30.967,58.174,30.967z"/>
			</g>
			<g>
				<path d="M57.066,53.418c-0.016-0.404-0.139-0.816-0.344-1.143l3.141,0.002l0.002-1.069l-5.076-0.006L53.75,51.2
					c-0.076-0.651-0.629-1.139-1.301-1.14l-1.504-0.001l0.004-3.957c0-0.298-0.238-0.539-0.535-0.539s-0.537,0.241-0.537,0.536
					l-0.008,3.958l-2.748-0.002l-0.002,1.141l-3.354-0.006L43.764,53.4L57.066,53.418z"/>
				<path d="M40.418,54.473l-0.002,1.811c-0.002,0.814,0.684,1.477,1.498,1.477l16.412,0.018c0.594,0.002,1.105-0.338,1.342-0.846
					c0.039-0.084,0.418-1.23,0.83-2.438L40.418,54.473z M42.371,56.977c0,0.037-0.031,0.066-0.072,0.066l-0.723-0.002
					c-0.039,0-0.07-0.027-0.07-0.064l0.002-0.664c0-0.035,0.031-0.064,0.068-0.064l0.723,0.002c0.041,0,0.074,0.027,0.074,0.064
					L42.371,56.977z M44.17,56.98c0,0.033-0.031,0.064-0.07,0.064h-0.727c-0.039,0-0.07-0.031-0.07-0.064l0.002-0.664
					c0-0.037,0.031-0.066,0.07-0.066h0.727c0.037,0,0.068,0.031,0.07,0.068L44.17,56.98z M45.967,56.98
					c0,0.039-0.031,0.066-0.068,0.066l-0.727-0.002c-0.039,0.002-0.07-0.029-0.07-0.064v-0.662c0-0.035,0.033-0.064,0.072-0.064
					l0.725,0.002c0.039,0,0.07,0.029,0.07,0.063L45.967,56.98z M47.768,56.982c0,0.037-0.033,0.066-0.072,0.066l-0.723-0.002
					c-0.039,0-0.072-0.027-0.072-0.066v-0.66c0-0.035,0.033-0.064,0.072-0.064h0.725c0.039,0,0.07,0.029,0.07,0.066V56.982z
					 M49.566,56.986c0,0.035-0.035,0.063-0.07,0.063H48.77c-0.037,0-0.072-0.027-0.072-0.066l0.004-0.66
					c0-0.035,0.033-0.064,0.068-0.064h0.727c0.039,0,0.072,0.029,0.072,0.064L49.566,56.986z M51.365,56.986
					c0,0.037-0.031,0.066-0.07,0.066H50.57c-0.039,0-0.072-0.029-0.072-0.066v-0.662c0-0.035,0.033-0.064,0.072-0.064l0.725,0.002
					c0.041,0,0.07,0.027,0.07,0.063V56.986z M53.164,56.988c0,0.037-0.031,0.066-0.072,0.066h-0.725
					c-0.039,0-0.068-0.029-0.068-0.066v-0.662c0-0.035,0.031-0.064,0.068-0.064h0.725c0.041,0,0.072,0.031,0.072,0.064V56.988z
					 M54.963,56.992c0,0.037-0.031,0.066-0.07,0.066l-0.725-0.004c-0.041,0-0.072-0.027-0.072-0.064l0.002-0.664
					c0-0.033,0.031-0.063,0.07-0.063h0.725c0.041,0,0.07,0.031,0.07,0.066V56.992L54.963,56.992z M56.762,56.996
					c0,0.035-0.033,0.064-0.072,0.064l-0.725-0.002c-0.037,0-0.068-0.029-0.068-0.066V56.33c0-0.035,0.031-0.064,0.07-0.064h0.725
					c0.039,0,0.072,0.029,0.072,0.066L56.762,56.996z M58.559,56.996c0,0.037-0.031,0.064-0.07,0.064h-0.725
					c-0.039,0-0.07-0.029-0.07-0.064v-0.664c0-0.035,0.033-0.064,0.072-0.064h0.723c0.039,0,0.072,0.029,0.072,0.064L58.559,56.996z
					"/>
			</g>
		</g>
		<g>
			<path fill="#254171" d="M21.197,57.482c0,0-0.495-0.383-0.503-0.857c-0.007-0.475,0.541-2.932-0.645-3.145
				c-1.186-0.215-1.497-0.283-1.497-0.283s-0.365-0.057-0.291-0.59c0.076-0.533,2.146-8.981,1.794-9.413
				c-4.092-5.039-2.454-15.312,2.582-15.344c1.446-0.011,5.345,0,5.345,0c2.662,0.542,4.832,4.679,5.05,6.595
				c0.048,0.416-2.676,0.122-3.029,2.827c0.026,1.364,1.102,1.498,0.509,2.825c-0.938,0.929-2.501,3.174-2.501,3.174
				s1.344,7.174,1.266,9.214c-0.06,1.574-3.001,1.283-3.001,1.283s-0.043,2.855-0.303,3.619
				C25.829,57.545,21.197,57.482,21.197,57.482z"/>
			<path fill="#254171" d="M30.03,57.389c0,0,0.123-5.453,0.12-6.484c-0.667-1.014-1.593-5.268-0.996-7.152
				c0.597-1.884,0.673-2.897,3.131-3.369c0.299,0.01,2.21,0.097,2.21,0.097s1.929,1.114,2.292,2.792
				c0.151,0.708,0.872,2.255-1.749,7.632v6.484H30.03z"/>
			<path fill="#254171" d="M34.972,37.736c0,1.042-0.843,1.885-1.884,1.885c-1.041,0-1.884-0.843-1.884-1.885
				c0-1.04,0.844-1.882,1.884-1.882S34.972,36.696,34.972,37.736z"/>
			<path fill="#254171" d="M15.544,57.229"/>
			<path fill="#254171" d="M23.165,26.939h4.558c0,0,1.763,0.169,1.322-1.747c-0.441-1.918-1.854-4.484-3.068-5.1
				c-0.372-0.138-0.577-0.384-1.222,0c-0.646,0.385-2.258,0.863-2.819,5.854C21.834,26.991,22.604,26.904,23.165,26.939z"/>
			<g>
				<path fill="#254171" d="M11.593,57.803c0,0-0.36-0.279-0.366-0.625s0.395-3.129-0.469-3.287
					c-0.864-0.156-1.089-0.205-1.089-0.205s-0.267-0.041-0.211-0.43c0.054-0.389,1.561-6.539,1.305-6.854
					c-2.98-3.669-1.787-11.148,1.88-11.175c1.054-0.006,3.936,0.075,3.936,0.075c1.11-0.023,0.025,3.652,0.932,4.973
					c1.058,1.542,0.688,3.703,0.867,3.875c0.287,0.266-1.821,2.309-1.821,2.309s0.978,5.222,0.922,6.712
					c-0.043,1.145-2.185,0.934-2.185,0.934s-0.032,3.074-0.221,3.629C14.968,57.848,11.593,57.803,11.593,57.803z"/>
				<path fill="#254171" d="M13.027,34.564h3.318c0,0,1.284,0.123,0.963-1.271c-0.321-1.397-1.351-3.266-2.234-3.715
					c-0.271-0.1-0.419-0.28-0.889,0c-0.472,0.281-1.645,0.628-2.053,4.265C12.057,34.601,12.617,34.54,13.027,34.564z"/>
			</g>
		</g>
		<polygon fill="#066497" points="12.12,68.133 66.646,68.133 61.719,72.684 16.808,72.684 		"/>
		<g>
			<polygon fill="#BA3932" points="7.519,63.563 70.543,63.563 74.846,57.283 3.664,57.283 			"/>
			<polygon fill="#254171" points="7.496,63.58 71.033,63.58 67.238,68.133 11.77,68.133 			"/>
			<path fill="none" stroke="#244973" stroke-width="0.5" stroke-miterlimit="10" d="M78.711,39.972
				c0,21.753-17.621,39.37-39.35,39.37C17.622,79.342,0,61.725,0,39.972C0,18.223,17.622,0.601,39.361,0.601
				C61.09,0.601,78.711,18.223,78.711,39.972z"/>
		</g>
		<text transform="matrix(1 0 0 1 34.7114 11.3501)" font-family="'MyriadPro-Bold'" font-size="2.8799">(MiWA)</text>
	</g>
	<g>
		
			<text transform="matrix(1 0 0 1 8.3833 99.2109)" fill="#254171" font-family="'MyriadPro-Semibold'" font-size="23.0891" letter-spacing="1">M</text>
		<text transform="matrix(1 0 0 1 28.6323 99.2109)" fill="#BA3932" font-family="'MyriadPro-Semibold'" font-size="19.6077">i</text>
		
			<text transform="matrix(1 0 0 1 34.6323 99.2109)" fill="#254171" font-family="'MyriadPro-Semibold'" font-size="23.0891" letter-spacing="1">WA</text>
	</g>
</g>
</svg>
