<?xml version="1.0" encoding="utf-8"?>
<!-- Generator: Adobe Illustrator 16.0.0, SVG Export Plug-In . SVG Version: 6.00 Build 0)  -->
<!DOCTYPE svg PUBLIC "-//W3C//DTD SVG 1.1//EN" "http://www.w3.org/Graphics/SVG/1.1/DTD/svg11.dtd">
<svg version="1.1" id="Layer_1" xmlns="http://www.w3.org/2000/svg" xmlns:xlink="http://www.w3.org/1999/xlink" x="0px" y="0px"
	 width="960px" height="960px" viewBox="0 0 960 960" enable-background="new 0 0 960 960" xml:space="preserve">
<g>
	<g>
		<g>
			<g>
				<path fill="#B8352D" d="M371.461,288.977c-1.156-1.184-2.559-2.607-3.681-3.921c-0.021,0.019-0.031,0.027-0.052,0.045
					c0.645,1.507,1.313,3.228,1.888,4.88c0.825,2.242,1.251,3.353,2.127,5.564c-0.609,0.563-0.913,0.848-1.516,1.421
					c-2.077-1.044-3.124-1.556-5.236-2.554c-1.562-0.759-3.184-1.614-4.607-2.45c-0.013,0.013-0.021,0.021-0.034,0.034
					c1.127,1.237,2.493,2.744,3.645,4.062c1.356,1.556,2.037,2.332,3.398,3.882c-0.716,0.715-1.073,1.077-1.78,1.807
					c-3.4-3.848-5.089-5.782-8.443-9.676c1.083-1.104,1.628-1.648,2.73-2.722c2.034,0.892,3.044,1.35,5.047,2.286
					c1.433,0.708,2.819,1.489,4.068,2.271c0.02-0.018,0.029-0.027,0.048-0.045c-0.652-1.288-1.343-2.796-1.918-4.305
					c-0.758-2.088-1.126-3.136-1.839-5.25c1.123-1.003,1.689-1.499,2.828-2.472c3.6,3.66,5.39,5.5,8.947,9.196
					c-0.792,0.67-1.186,1.008-1.97,1.693C373.655,291.221,372.925,290.472,371.461,288.977z"/>
				<path fill="#B8352D" d="M374.129,278.171c0.435,0.537,0.284,1.368-0.487,1.985c-0.735,0.589-1.563,0.555-2.006,0.011
					c-0.457-0.56-0.3-1.402,0.446-2C372.847,277.555,373.682,277.618,374.129,278.171z M379.228,289.245
					c-2.333-2.871-3.502-4.306-5.837-7.176c0.877-0.715,1.318-1.068,2.205-1.767c2.285,2.91,3.428,4.365,5.712,7.275
					C380.471,288.237,380.056,288.57,379.228,289.245z"/>
				<path fill="#B8352D" d="M375.416,275.09c0.919-0.697,1.38-1.041,2.309-1.72c3.18,4.357,4.771,6.536,7.951,10.893
					c-0.854,0.625-1.279,0.941-2.125,1.583C380.297,281.543,378.669,279.393,375.416,275.09z"/>
				<path fill="#B8352D" d="M383.642,271.221c0.396,0.566,0.194,1.382-0.608,1.937c-0.765,0.529-1.583,0.432-1.987-0.142
					c-0.416-0.591-0.207-1.415,0.57-1.952C382.412,270.514,383.234,270.638,383.642,271.221z M387.979,282.608
					c-2.126-3.028-3.19-4.542-5.317-7.57c0.914-0.644,1.374-0.961,2.296-1.588c2.076,3.063,3.114,4.595,5.189,7.658
					C389.275,281.7,388.841,282,387.979,282.608z"/>
				<path fill="#B8352D" d="M388.687,267.865c0.56,0.896,0.839,1.344,1.398,2.239c0.887-0.556,1.333-0.829,2.227-1.369
					c0.361,0.599,0.542,0.899,0.903,1.498c-0.884,0.534-1.325,0.804-2.203,1.354c0.866,1.385,1.299,2.078,2.164,3.463
					c0.594,0.951,1.194,1.267,2.048,0.742c0.381-0.234,0.644-0.459,0.815-0.63c0.384,0.603,0.574,0.903,0.958,1.506
					c-0.256,0.31-0.781,0.742-1.479,1.176c-0.805,0.5-1.636,0.689-2.301,0.555c-0.748-0.151-1.421-0.71-2.082-1.73
					c-0.946-1.46-1.419-2.191-2.365-3.651c-0.521,0.338-0.78,0.509-1.299,0.853c-0.386-0.583-0.578-0.875-0.964-1.458
					c0.524-0.347,0.786-0.52,1.313-0.861c-0.455-0.702-0.68-1.053-1.135-1.754C387.479,269.017,387.879,268.631,388.687,267.865z"/>
				<path fill="#B8352D" d="M403.783,272.837c-0.253-0.33-0.378-0.494-0.632-0.823c-0.022,0.012-0.034,0.018-0.056,0.03
					c-0.214,0.936-0.903,1.895-2.053,2.545c-1.788,1.011-3.466,0.449-4.182-0.761c-1.19-2.01,0.247-4.269,3.7-6.116
					c-0.029-0.054-0.042-0.081-0.071-0.134c-0.289-0.534-1.023-1.292-2.677-0.368c-0.923,0.516-1.739,1.313-2.166,2.022
					c-0.488-0.419-0.733-0.628-1.224-1.045c0.478-0.765,1.495-1.817,2.992-2.648c3.034-1.685,4.797-0.444,5.726,1.343
					c0.617,1.187,0.926,1.779,1.542,2.966c0.385,0.742,0.799,1.447,1.154,1.905C405.013,272.18,404.602,272.396,403.783,272.837z
					 M401.342,269.017c-1.667,0.858-3.047,2.064-2.351,3.285c0.452,0.792,1.229,0.829,1.949,0.427
					c0.906-0.506,1.275-1.409,1.173-2.1c-0.026-0.179-0.095-0.357-0.167-0.491C401.704,269.69,401.584,269.465,401.342,269.017z"/>
				<path fill="#B8352D" d="M405.335,264.973c-0.558-1.122-0.978-1.911-1.41-2.629c0.847-0.422,1.272-0.631,2.124-1.04
					c0.338,0.622,0.507,0.932,0.844,1.554c0.031-0.015,0.047-0.022,0.079-0.037c-0.094-1.408,0.762-2.548,1.805-3.025
					c0.241-0.11,0.389-0.158,0.605-0.214c0.364,0.803,0.546,1.204,0.91,2.007c-0.214,0.055-0.449,0.119-0.745,0.255
					c-1.167,0.536-1.651,1.578-1.408,2.611c0.048,0.206,0.117,0.447,0.232,0.688c0.825,1.728,1.237,2.593,2.062,4.321
					c-0.925,0.441-1.385,0.666-2.304,1.123C407.012,268.341,406.453,267.218,405.335,264.973z"/>
				<path fill="#B8352D" d="M413.112,258.109c1.487,1.524,2.221,2.292,3.667,3.843c0.413,0.446,0.873,1.018,1.21,1.456
					c0.023-0.01,0.036-0.014,0.059-0.023c-0.044-0.557-0.123-1.262-0.172-1.897c-0.137-2.074-0.196-3.115-0.293-5.197
					c1.078-0.42,1.618-0.625,2.702-1.025c-0.125,2.736-0.167,4.102-0.211,6.826c-0.064,3.734-0.344,5.506-1.051,6.83
					c-0.594,1.112-1.395,1.803-1.939,2.123c-0.522-0.635-0.786-0.951-1.313-1.583c0.355-0.26,0.757-0.682,1.098-1.179
					c0.305-0.445,0.609-1.184,0.703-1.885c0.026-0.195,0.037-0.344-0.007-0.449c-0.037-0.088-0.107-0.204-0.31-0.366
					c-2.678-2.564-4.053-3.823-6.867-6.288C411.474,258.81,412.02,258.573,413.112,258.109z"/>
				<path d="M430.448,261.56c-2.847-4.472-4.321-6.685-7.373-11.056c1.106-0.377,1.662-0.561,2.773-0.919
					c1.257,2.038,1.876,3.061,3.097,5.115c0.815,1.377,1.622,2.839,2.216,3.99c0.016-0.005,0.024-0.008,0.041-0.013
					c-0.176-1.357-0.235-2.927-0.308-4.59c-0.064-2.4-0.084-3.603-0.104-6.009c1.103-0.318,1.655-0.472,2.762-0.771
					c1.192,2.118,1.778,3.182,2.931,5.316c0.738,1.378,1.378,2.685,1.924,3.978c0.016-0.004,0.024-0.008,0.04-0.012
					c-0.105-1.424-0.137-2.923-0.139-4.528c0.022-2.394,0.045-3.592,0.109-5.99c1.08-0.257,1.62-0.381,2.703-0.62
					c-0.457,5.346-0.625,8.015-0.838,13.343c-1.052,0.259-1.577,0.394-2.625,0.671c-1.174-2.182-1.772-3.268-2.989-5.432
					c-0.738-1.314-1.316-2.416-1.86-3.704c-0.017,0.005-0.026,0.006-0.043,0.011c0.118,1.388,0.183,2.653,0.176,4.177
					c0.025,2.499,0.05,3.746,0.125,6.238C432.017,261.067,431.492,261.229,430.448,261.56z"/>
				<path d="M445.348,245.56c0.144,0.676-0.339,1.342-1.26,1.531c-0.878,0.18-1.572-0.234-1.72-0.92
					c-0.152-0.707,0.34-1.375,1.232-1.558C444.514,244.425,445.2,244.864,445.348,245.56z M445.002,257.71
					c-0.776-3.619-1.165-5.428-1.941-9.046c1.053-0.225,1.579-0.333,2.635-0.541c0.717,3.63,1.076,5.445,1.793,9.077
					C446.493,257.396,445.996,257.498,445.002,257.71z"/>
				<path d="M457.625,241.96c0.517,4.322,0.775,6.483,1.291,10.806c0.113,0.943,0.275,1.957,0.39,2.575
					c-0.893,0.105-1.339,0.162-2.23,0.28c-0.118-0.575-0.177-0.861-0.296-1.436c-0.017,0.002-0.024,0.003-0.041,0.005
					c-0.456,1.097-1.557,1.899-2.99,2.121c-2.341,0.363-4.522-1.153-5.045-3.945c-0.568-3.034,1.264-5.256,3.771-5.642
					c1.437-0.221,2.542,0.165,3.104,0.778c0.017-0.002,0.024-0.003,0.041-0.006c-0.282-2.078-0.422-3.116-0.705-5.193
					C455.999,242.159,456.541,242.089,457.625,241.96z M456.006,250.322c-0.025-0.188-0.077-0.416-0.146-0.594
					c-0.335-0.864-1.285-1.494-2.473-1.316c-1.675,0.25-2.388,1.722-2.104,3.427c0.278,1.668,1.378,2.731,2.973,2.492
					c1.021-0.153,1.813-0.941,1.945-1.946c0.028-0.211,0.022-0.444-0.011-0.689C456.117,251.146,456.081,250.872,456.006,250.322z"
					/>
				<path d="M471.14,249.679c0.139,3.397-2.364,5.021-4.885,5.207c-2.806,0.207-5.146-1.352-5.459-4.298
					c-0.32-3.022,1.747-5.125,4.92-5.355C468.847,245.004,471.024,246.87,471.14,249.679z M463.449,250.272
					c0.159,1.778,1.223,3.034,2.764,2.921c1.439-0.105,2.371-1.469,2.264-3.327c-0.083-1.441-0.907-3.057-2.702-2.926
					C463.917,247.076,463.312,248.74,463.449,250.272z"/>
				<path d="M474.565,245.033c0.473,1.67,0.704,2.505,1.155,4.179c0.244,0.985,0.482,1.991,0.676,2.996c0.017,0,0.026,0,0.042,0
					c0.198-1.008,0.528-2.037,0.819-2.988c0.526-1.688,0.794-2.531,1.348-4.215c0.864,0.004,1.296,0.009,2.16,0.024
					c0.497,1.65,0.74,2.476,1.211,4.13c0.288,1.091,0.531,2.106,0.727,3.119c0.017,0,0.021,0,0.037,0.001
					c0.197-1.001,0.463-2.001,0.775-3.073c0.514-1.624,0.773-2.434,1.311-4.054c1.045,0.044,1.569,0.07,2.614,0.131
					c-1.538,3.616-2.27,5.435-3.661,9.085c-0.93-0.036-1.396-0.051-2.326-0.073c-0.438-1.515-0.66-2.271-1.121-3.784
					c-0.297-0.974-0.52-1.85-0.741-2.973c-0.017,0-0.026,0-0.043,0c-0.226,1.137-0.507,2.046-0.805,2.956
					c-0.528,1.501-0.786,2.253-1.289,3.759c-0.938,0.002-1.408,0.006-2.346,0.022c-1.237-3.68-1.89-5.514-3.266-9.167
					C472.931,245.071,473.476,245.054,474.565,245.033z"/>
				<path d="M488.287,252.453c0.557,0.36,1.619,0.781,2.523,0.855c1.108,0.091,1.641-0.276,1.697-0.882
					c0.059-0.624-0.324-0.99-1.541-1.488c-1.925-0.789-2.7-1.827-2.62-2.896c0.121-1.613,1.728-2.812,4.164-2.596
					c1.164,0.104,2.146,0.472,2.718,0.818c-0.276,0.636-0.409,0.952-0.682,1.589c-0.422-0.273-1.226-0.657-2.145-0.738
					c-0.939-0.083-1.484,0.274-1.53,0.842c-0.048,0.587,0.427,0.903,1.687,1.441c1.793,0.765,2.563,1.736,2.427,3.087
					c-0.167,1.65-1.711,2.703-4.333,2.487c-1.199-0.099-2.256-0.439-2.967-0.864C487.924,253.446,488.044,253.115,488.287,252.453z"
					/>
				<path d="M504.37,252.84c-0.721,1.351-1.075,2.028-1.774,3.386c-1.026-0.164-1.538-0.241-2.566-0.388
					c2.479-4.819,3.788-7.209,6.545-11.93c1.37,0.235,2.054,0.361,3.419,0.625c0.93,5.395,1.319,8.093,1.951,13.483
					c-1.056-0.236-1.585-0.349-2.645-0.566c-0.196-1.522-0.303-2.283-0.522-3.806C507.018,253.297,506.137,253.136,504.37,252.84z
					 M508.685,251.825c-0.199-1.323-0.302-1.986-0.519-3.31c-0.134-0.816-0.212-1.718-0.293-2.486
					c-0.018-0.003-0.025-0.005-0.043-0.008c-0.35,0.689-0.722,1.527-1.111,2.23c-0.664,1.163-0.987,1.747-1.635,2.917
					C506.527,251.415,507.246,251.546,508.685,251.825z"/>
				<path d="M514.018,256.288c0.493,0.446,1.479,1.035,2.362,1.257c1.085,0.272,1.672-0.001,1.827-0.59
					c0.16-0.606-0.162-1.03-1.287-1.723c-1.78-1.096-2.376-2.246-2.122-3.288c0.384-1.572,2.166-2.492,4.549-1.877
					c1.138,0.294,2.054,0.819,2.564,1.255c-0.378,0.582-0.563,0.874-0.938,1.457c-0.375-0.339-1.108-0.851-2.006-1.083
					c-0.917-0.237-1.518,0.027-1.655,0.579c-0.143,0.571,0.275,0.961,1.438,1.699c1.654,1.051,2.264,2.136,1.907,3.447
					c-0.436,1.602-2.142,2.385-4.707,1.741c-1.172-0.294-2.164-0.804-2.8-1.341C513.496,257.207,513.668,256.901,514.018,256.288z"
					/>
				<path d="M522.412,258.497c0.47,0.473,1.427,1.116,2.3,1.387c1.071,0.333,1.674,0.092,1.861-0.487
					c0.192-0.597-0.105-1.038-1.195-1.792c-1.724-1.193-2.26-2.375-1.949-3.402c0.469-1.549,2.304-2.37,4.657-1.622
					c1.124,0.357,2.014,0.934,2.502,1.398c-0.41,0.56-0.611,0.841-1.018,1.403c-0.356-0.36-1.063-0.915-1.95-1.196
					c-0.905-0.288-1.521-0.056-1.688,0.488c-0.174,0.563,0.223,0.974,1.347,1.777c1.6,1.142,2.151,2.26,1.724,3.549
					c-0.523,1.575-2.273,2.263-4.808,1.476c-1.158-0.359-2.126-0.924-2.733-1.495C521.84,259.386,522.029,259.09,522.412,258.497z"
					/>
				<path d="M540.873,262.382c-1.334,3.128-4.333,3.504-6.723,2.58c-2.658-1.028-4.126-3.443-3.145-6.241
					c1.006-2.868,3.796-3.879,6.803-2.712C540.774,257.161,541.976,259.795,540.873,262.382z M533.565,259.581
					c-0.619,1.675-0.185,3.269,1.275,3.835c1.363,0.528,2.804-0.299,3.505-2.023c0.544-1.337,0.485-3.155-1.215-3.814
					C535.369,256.895,534.1,258.137,533.565,259.581z"/>
				<path d="M547.82,270.472c-0.589-0.039-1.649-0.291-2.794-0.837c-2.854-1.363-4.002-3.855-2.853-6.485
					c1.111-2.542,4.007-3.672,7.412-2.034c0.896,0.431,1.723,1.053,2.165,1.551c-0.486,0.538-0.726,0.808-1.209,1.348
					c-0.315-0.348-0.803-0.799-1.669-1.217c-1.851-0.891-3.505-0.185-4.193,1.348c-0.774,1.722,0.004,3.276,1.598,4.043
					c0.816,0.393,1.456,0.521,1.994,0.577C548.092,269.448,548.003,269.79,547.82,270.472z"/>
				<path d="M557.42,262.444c-0.318,0.614-1.122,0.817-1.972,0.37c-0.811-0.427-1.095-1.194-0.773-1.818
					c0.331-0.643,1.146-0.843,1.969-0.409C557.486,261.031,557.748,261.813,557.42,262.444z M549.39,271.588
					c1.696-3.29,2.545-4.934,4.241-8.223c0.976,0.503,1.461,0.759,2.43,1.28c-1.751,3.26-2.626,4.891-4.377,8.152
					C550.769,272.305,550.311,272.063,549.39,271.588z"/>
				<path d="M559.084,277.041c0.156-0.385,0.233-0.581,0.389-0.966c-0.021-0.013-0.035-0.019-0.057-0.032
					c-0.919,0.286-2.098,0.171-3.24-0.494c-1.778-1.036-2.136-2.764-1.454-3.994c1.132-2.043,3.792-1.951,7.149,0.11
					c0.031-0.052,0.047-0.078,0.078-0.13c0.314-0.52,0.598-1.539-1.039-2.502c-0.914-0.538-2.014-0.84-2.84-0.85
					c0.115-0.633,0.171-0.95,0.282-1.584c0.9,0.026,2.319,0.371,3.798,1.247c2.995,1.775,2.834,3.935,1.762,5.64
					c-0.712,1.132-1.07,1.699-1.782,2.831c-0.445,0.708-0.843,1.422-1.058,1.961C560.279,277.775,559.883,277.529,559.084,277.041z
					 M561.14,272.998c-1.593-1.013-3.328-1.594-4.029-0.376c-0.455,0.791-0.095,1.48,0.619,1.901c0.896,0.528,1.864,0.398,2.41-0.04
					c0.141-0.113,0.262-0.266,0.34-0.395C560.744,273.652,560.875,273.434,561.14,272.998z"/>
				<path d="M572.332,271.445c-0.594,0.873-0.893,1.31-1.486,2.183c0.869,0.593,1.304,0.893,2.166,1.501
					c-0.402,0.572-0.604,0.858-1.006,1.43c-0.854-0.602-1.282-0.9-2.143-1.487c-0.919,1.351-1.379,2.026-2.298,3.377
					c-0.631,0.927-0.677,1.604,0.152,2.181c0.371,0.258,0.685,0.409,0.911,0.498c-0.396,0.594-0.595,0.892-0.991,1.486
					c-0.39-0.112-1.001-0.425-1.683-0.893c-0.787-0.541-1.294-1.227-1.439-1.891c-0.164-0.747,0.074-1.59,0.742-2.606
					c0.955-1.455,1.436-2.181,2.392-3.636c-0.519-0.342-0.78-0.512-1.302-0.848c0.379-0.588,0.567-0.881,0.945-1.469
					c0.527,0.34,0.789,0.51,1.313,0.855c0.459-0.699,0.688-1.047,1.147-1.746C570.786,270.795,571.302,271.009,572.332,271.445z"/>
				<path d="M578.655,276.048c-0.406,0.559-1.244,0.63-2.033,0.048c-0.753-0.556-0.93-1.362-0.519-1.932
					c0.423-0.586,1.27-0.654,2.034-0.09C578.92,274.652,579.074,275.472,578.655,276.048z M569.297,283.849
					c2.168-2.999,3.254-4.499,5.423-7.497c0.907,0.658,1.356,0.992,2.255,1.667c-2.219,2.961-3.326,4.442-5.545,7.403
					C570.581,284.785,570.153,284.47,569.297,283.849z"/>
				<path d="M584.48,290.012c-2.256,2.544-5.308,1.865-7.366,0.16c-2.29-1.896-2.989-4.703-1.179-7.05
					c1.856-2.406,4.891-2.434,7.479-0.285C585.969,284.958,586.346,287.908,584.48,290.012z M578.176,284.814
					c-1.114,1.394-1.179,3.067,0.079,4.11c1.174,0.974,2.838,0.679,4.048-0.735c0.938-1.097,1.434-2.864-0.031-4.079
					C580.754,282.853,579.137,283.613,578.176,284.814z"/>
				<path d="M587.367,290.209c0.717-0.786,1.302-1.463,1.788-2.099c0.736,0.672,1.104,1.011,1.832,1.696
					c-0.339,0.442-0.51,0.665-0.85,1.107c0.02,0.019,0.03,0.027,0.05,0.045c0.846-0.194,2.345,0.015,3.689,1.338
					c1.412,1.389,2.098,3.596-0.004,5.631c-1.578,1.527-2.366,2.291-3.943,3.818c-0.756-0.78-1.137-1.167-1.903-1.931
					c1.475-1.479,2.215-2.22,3.69-3.699c0.938-0.941,1.225-2.083,0.12-3.157c-0.808-0.785-1.835-0.835-2.53-0.532
					c-0.208,0.09-0.421,0.282-0.604,0.475c-1.492,1.58-2.238,2.37-3.73,3.95c-0.788-0.745-1.184-1.113-1.981-1.841
					C584.742,293.09,585.616,292.129,587.367,290.209z"/>
			</g>
		</g>
		<g>
			<path fill-rule="evenodd" clip-rule="evenodd" d="M603.626,394.69c1.527,4.746,4.394,6.383,9.471,6.084
				c7.217-0.41,14.591-1.082,21.709,1.138c2.135,0.671,5.242,1.144,5.148,3.771c-0.095,2.521-3.129,2.998-5.331,3.669
				c-6.961,2.126-14.12,1.368-21.186,1.147c-4.674-0.15-8.407,0.313-9.745,6.115c1.492,0.406,4.682-0.397,3.842,3.16
				c-0.821,3.494-3.413,2.131-5.074,1.565c-2.515-0.856-3.115,0.753-4.073,2.192c-4.428,6.641-8.836,13.291-13.295,19.909
				c-1.458,2.154-2.964,4.382-6.5,3.907c3.026-8.61,5.928-16.873,8.853-25.119c0.235-0.657,0.79-1.205,1.008-1.859
				c2.521-7.593,0.917-9.136-6.731-10.136c-8.027-1.049-14.535-0.862-17.358,8.294c-0.432,1.402-1.991,2.282-3.491,1.525
				c-1.521-0.764-0.238-2.216-0.238-3.338c0.004-1.041,0.407-2.086,0.678-3.116c0.963-3.659,1.5-7.103-4.47-7.775
				c7.57-1.798,4.635-6.491,4.003-10.64c-0.2-1.305-1.805-3.244,0.485-4.08c1.898-0.696,2.907,0.896,3.528,2.424
				c2.743,6.75,7.16,10.037,14.644,7.35c0.632-0.223,1.412-0.059,2.125-0.074c7.907-0.129,9.594-3.176,6.545-10.895
				c-3.11-7.885-5.815-15.926-8.726-23.887c-0.222-0.622-0.977-1.186-0.334-1.852c0.713-0.748,1.619-0.449,2.447-0.109
				c1.929,0.802,2.961,2.518,4.035,4.136c4.228,6.338,8.432,12.701,12.582,19.091c1.19,1.835,2.086,3.536,4.94,2.511
				c1.538-0.543,3.976-1.352,4.492,1.844C608.188,395.198,605.22,394.071,603.626,394.69z"/>
			<path fill-rule="evenodd" clip-rule="evenodd" fill="#656565" d="M471.771,422.093"/>
			<path fill-rule="evenodd" clip-rule="evenodd" fill="#656565" d="M471.771,422.093"/>
			<path fill-rule="evenodd" clip-rule="evenodd" d="M548.037,402.682c-18.395,0-36.789,0-55.18,0c0-0.178,0-0.354-0.002-0.536
				c18.399,0,36.801,0,55.202,0C548.055,402.327,548.044,402.504,548.037,402.682z"/>
			<path fill-rule="evenodd" clip-rule="evenodd" d="M500.354,393.473c18.037,0,36.076,0,54.112,0c0,0.177,0,0.356,0,0.53
				c-18.043,0-36.09,0-54.139,0C500.337,393.829,500.346,393.649,500.354,393.473z"/>
			<path fill-rule="evenodd" clip-rule="evenodd" d="M554.347,414.396c-16.251,0-32.507,0-48.756,0c0-0.176,0-0.352-0.003-0.53
				c16.319,0,32.638,0,48.953,0C554.477,414.045,554.414,414.221,554.347,414.396z"/>
			<path fill="#656565" d="M503.824,361.274c-1.047-0.01-2.089-0.017-3.137-0.031"/>
			<path fill="#656565" d="M503.824,361.274c-1.047-0.01-2.089-0.017-3.137-0.031"/>
			<path fill-rule="evenodd" clip-rule="evenodd" fill="#656565" d="M507.22,464.79c-0.042-0.007-0.085-0.033-0.128-0.042
				c0.023,0,0.043-0.013,0.064-0.017L507.22,464.79z"/>
			<path fill-rule="evenodd" clip-rule="evenodd" fill="#656565" d="M523.34,463.575c-0.043,0.023-0.088,0.039-0.13,0.074
				l-0.025-0.074H523.34z"/>
			<path fill-rule="evenodd" clip-rule="evenodd" fill="#656565" d="M523.21,463.649c-0.025-0.014-0.043-0.014-0.063-0.025
				c0.011-0.01,0.021-0.025,0.038-0.049L523.21,463.649z"/>
			<g>
				<path d="M537.59,322.854c0-1.145-0.154-2.25-0.442-3.299h48.728v-5.874h-52.307c-1.679-1.543-3.803-2.632-6.366-3.07
					c0-1.59,0-2.701,0-2.701v-0.075c0-0.066,0.12-0.081,0.12-0.146c-0.1-3.41-2.778-6.102-6.213-6.102h-25.813v10.261
					c-4.033,2.103-6.541,6.244-6.541,11.006c0,0.046,0.035,0.091,0.035,0.144c0.762-0.092,1.563-0.144,2.348-0.144H537.59z"/>
				<path d="M573.77,356.862v-0.101c6.603-1.097,11.733-6.798,11.733-13.771v-0.119c0-7.766-6.171-14.15-13.932-14.15h-80.433
					c-7.762,0-14.178,6.385-14.178,14.145v0.125c0,6.973,5.133,12.674,11.736,13.771v0.101c0,2.162,0.646,4.194,1.661,5.943
					c2.051,3.52,5.924,5.887,10.287,5.887h61.425c4.361,0,8.111-2.367,10.159-5.887C573.247,361.057,573.77,359.024,573.77,356.862z
					 M541.295,362.549c-3.295,0-5.963-2.667-5.963-5.957c0-3.3,2.668-5.962,5.963-5.962c3.293,0,5.958,2.662,5.958,5.962
					C547.253,359.882,544.588,362.549,541.295,362.549z M515.164,356.592c0-3.3,2.666-5.962,5.96-5.962
					c3.293,0,5.962,2.662,5.962,5.962c0,3.29-2.669,5.957-5.962,5.957C517.83,362.549,515.164,359.882,515.164,356.592z
					 M494.994,356.592c0-3.3,2.67-5.962,5.961-5.962c3.295,0,5.963,2.662,5.963,5.962c0,3.29-2.668,5.957-5.963,5.957
					C497.664,362.549,494.994,359.882,494.994,356.592z M561.458,362.549c-3.29,0-5.955-2.667-5.955-5.957
					c0-3.3,2.665-5.962,5.955-5.962c3.298,0,5.967,2.662,5.967,5.962C567.425,359.882,564.756,362.549,561.458,362.549z"/>
			</g>
			<g>
				<path d="M556.531,462.407c-0.07-1.797-0.614-3.627-1.524-5.076l13.97,0.01l0.004-4.764l-22.573-0.031l-4.624-0.006
					c-0.331-2.902-2.8-5.069-5.791-5.078l-6.68-0.006l0.018-17.596c0.004-1.321-1.063-2.394-2.377-2.394
					c-1.321,0-2.396,1.072-2.396,2.382l-0.018,17.601l-12.231-0.009l-0.007,5.072l-14.914-0.018l-0.015,9.838L556.531,462.407z"/>
				<path d="M482.456,467.096l-0.011,8.052c-0.002,3.622,3.08,6.568,6.704,6.568l72.986,0.084c2.647,0.008,4.928-1.512,5.967-3.764
					c0.172-0.371,1.857-5.475,3.697-10.837L482.456,467.096z M491.183,478.236c0,0.163-0.139,0.292-0.316,0.292l-3.22-0.008
					c-0.176,0-0.316-0.121-0.316-0.284l0.004-2.95c0-0.158,0.139-0.291,0.316-0.291l3.218,0.008c0.177,0,0.317,0.125,0.317,0.289
					L491.183,478.236z M499.182,478.25c0,0.155-0.141,0.288-0.316,0.288h-3.221c-0.176,0-0.318-0.137-0.318-0.288l0.004-2.954
					c0-0.16,0.145-0.289,0.317-0.293l3.224,0.004c0.176,0,0.313,0.136,0.316,0.297L499.182,478.25z M507.182,478.259
					c0,0.162-0.145,0.288-0.316,0.288l-3.224-0.006c-0.172,0.006-0.315-0.13-0.315-0.286l0.003-2.951
					c0-0.156,0.144-0.291,0.319-0.291l3.221,0.008c0.176,0,0.315,0.133,0.315,0.286L507.182,478.259z M515.182,478.266
					c0,0.163-0.141,0.292-0.315,0.292l-3.222-0.008c-0.176,0-0.319-0.129-0.319-0.291l0.005-2.946c0-0.159,0.142-0.288,0.316-0.288
					h3.224c0.175,0,0.315,0.134,0.315,0.297L515.182,478.266z M523.182,478.274c0,0.162-0.145,0.289-0.316,0.289l-3.224-0.006
					c-0.176,0-0.316-0.125-0.316-0.291l0.004-2.945c0-0.158,0.144-0.283,0.315-0.288l3.225,0.005c0.172,0,0.313,0.131,0.315,0.289
					L523.182,478.274z M531.181,478.282c0,0.16-0.14,0.294-0.315,0.294l-3.224-0.007c-0.173,0-0.316-0.127-0.313-0.287v-2.95
					c0-0.154,0.145-0.288,0.316-0.288l3.221,0.005c0.179,0,0.315,0.129,0.315,0.286V478.282z M539.181,478.29
					c0.003,0.163-0.141,0.292-0.316,0.292h-3.224c-0.176,0-0.315-0.132-0.315-0.292l0.003-2.948c0-0.159,0.145-0.293,0.316-0.287
					h3.22c0.176,0,0.319,0.135,0.319,0.292L539.181,478.29z M547.18,478.301c0,0.165-0.141,0.296-0.319,0.296l-3.22-0.008
					c-0.176,0-0.316-0.129-0.316-0.291l0.007-2.951c0-0.157,0.141-0.285,0.313-0.285l3.224,0.004c0.176,0,0.316,0.137,0.313,0.287
					V478.301z M555.18,478.318c0,0.155-0.141,0.284-0.316,0.284l-3.224-0.005c-0.175,0-0.315-0.132-0.315-0.297l0.003-2.942
					c0-0.156,0.141-0.285,0.319-0.285h3.22c0.173,0,0.317,0.133,0.317,0.294L555.18,478.318z M563.175,478.322
					c0,0.161-0.137,0.286-0.312,0.286l-3.225-0.006c-0.175,0-0.315-0.121-0.315-0.284l0.004-2.944c0-0.166,0.141-0.295,0.315-0.295
					l3.224,0.004c0.172,0,0.313,0.131,0.316,0.291L563.175,478.322z"/>
			</g>
		</g>
		<g>
			<path fill-rule="evenodd" clip-rule="evenodd" fill="#254171" d="M397.021,480.489c0,0-2.202-1.709-2.238-3.818
				c-0.034-2.115,2.407-13.035-2.867-13.989c-5.275-0.95-6.656-1.256-6.656-1.256s-1.625-0.253-1.291-2.623
				c0.335-2.368,9.54-39.952,7.975-41.872c-18.194-22.41-10.911-68.092,11.481-68.24c6.437-0.051,23.774,0,23.774,0
				c11.838,2.414,21.482,20.809,22.459,29.33c0.212,1.85-11.905,0.545-13.474,12.577c0.116,6.063,4.898,6.66,2.268,12.564
				c-4.175,4.128-11.128,14.117-11.128,14.117s5.978,31.899,5.632,40.989c-0.267,7.002-13.348,5.709-13.348,5.709
				s-0.195,12.693-1.348,16.088C417.621,480.763,397.021,480.489,397.021,480.489z"/>
			<path fill-rule="evenodd" clip-rule="evenodd" fill="#254171" d="M436.299,480.065c0,0,0.546-24.251,0.534-28.843
				c-2.967-4.515-7.083-23.428-4.428-31.81c2.658-8.381,2.992-12.888,13.927-14.984c1.327,0.045,9.826,0.432,9.826,0.432
				s8.579,4.951,10.194,12.419c0.667,3.147,3.874,10.025-7.778,33.943v28.843H436.299z"/>
			<path fill-rule="evenodd" clip-rule="evenodd" fill="#254171" d="M458.279,392.656c0,4.632-3.75,8.38-8.379,8.38
				s-8.382-3.748-8.382-8.38c0-4.627,3.754-8.374,8.382-8.374S458.279,388.029,458.279,392.656z"/>
			<path fill-rule="evenodd" clip-rule="evenodd" fill="#254171" d="M371.88,479.353"/>
			<path fill-rule="evenodd" clip-rule="evenodd" fill="#254171" d="M405.769,344.646h20.271c0,0,7.836,0.751,5.876-7.775
				c-1.959-8.524-8.245-19.938-13.643-22.68c-1.654-0.611-2.562-1.707-5.436,0c-2.873,1.713-10.04,3.838-12.537,26.033
				C399.851,344.871,403.276,344.487,405.769,344.646z"/>
			<g>
				<path fill-rule="evenodd" clip-rule="evenodd" fill="#254171" d="M354.312,481.909c0,0-1.603-1.244-1.627-2.774
					c-0.028-1.545,1.752-13.927-2.089-14.617c-3.844-0.7-4.846-0.914-4.846-0.914s-1.184-0.185-0.939-1.911
					c0.24-1.73,6.944-29.099,5.806-30.497c-13.253-16.323-7.946-49.583,8.361-49.697c4.688-0.03,17.505,0.331,17.505,0.331
					c4.931-0.104,0.113,16.242,4.141,22.117c4.706,6.857,3.065,16.469,3.861,17.228c1.271,1.179-8.104,10.271-8.104,10.271
					s4.351,23.236,4.101,29.854c-0.195,5.1-9.719,4.157-9.719,4.157s-0.141,13.678-0.981,16.145
					C369.316,482.112,354.312,481.909,354.312,481.909z"/>
				<path fill-rule="evenodd" clip-rule="evenodd" fill="#254171" d="M360.685,378.553h14.759c0,0,5.707,0.545,4.279-5.661
					c-1.425-6.211-6.005-14.521-9.934-16.517c-1.208-0.447-1.865-1.245-3.956,0c-2.093,1.25-7.313,2.792-9.132,18.962
					C356.371,378.715,358.864,378.439,360.685,378.553z"/>
			</g>
		</g>
		<polygon fill-rule="evenodd" clip-rule="evenodd" fill="#066497" points="356.655,527.843 599.139,527.843 577.229,548.082 
			377.5,548.082 		"/>
		<g>
			<polygon fill-rule="evenodd" clip-rule="evenodd" fill="#BA3932" points="336.193,507.527 616.465,507.527 635.599,479.603 
				319.048,479.603 			"/>
			<polygon fill-rule="evenodd" clip-rule="evenodd" fill="#254171" points="336.091,507.601 618.655,507.601 601.765,527.843 
				355.096,527.843 			"/>
			<path fill-rule="evenodd" clip-rule="evenodd" fill="none" stroke="#244973" stroke-width="3.2018" stroke-miterlimit="10" d="
				M652.792,402.594c0,96.747-78.365,175.107-174.999,175.107c-96.672,0-175.036-78.36-175.036-175.107
				c0-96.716,78.364-175.083,175.036-175.083C574.427,227.511,652.792,305.878,652.792,402.594z"/>
		</g>
		<text transform="matrix(1 0 0 1 457.1123 275.3271)" font-family="'MyriadPro-Bold'" font-size="12.8073">(MiWA)</text>
	</g>
	<g>
		<text transform="matrix(1 0 0 1 339.834 691.6494)"><tspan x="0" y="0" fill="#254171" font-family="'MyriadPro-Semibold'" font-size="102.6787" letter-spacing="5">M</tspan><tspan x="90.049" y="0" fill="#BA3932" font-family="'MyriadPro-Semibold'" font-size="87.1969" letter-spacing="4">i</tspan><tspan x="116.73" y="0" fill="#254171" font-family="'MyriadPro-Semibold'" font-size="102.6787" letter-spacing="5">WA</tspan></text>
		<text transform="matrix(1 0 0 1 320.4482 723.5332)" fill="#254171" font-family="'Calibri'" font-size="28.5476">life without our husbands</text>
	</g>
</g>
</svg>
