<?xml version="1.0" encoding="utf-8"?>
<!-- Generator: Adobe Illustrator 16.0.0, SVG Export Plug-In . SVG Version: 6.00 Build 0)  -->
<!DOCTYPE svg PUBLIC "-//W3C//DTD SVG 1.1//EN" "http://www.w3.org/Graphics/SVG/1.1/DTD/svg11.dtd">
<svg version="1.1" id="Layer_1" xmlns="http://www.w3.org/2000/svg" xmlns:xlink="http://www.w3.org/1999/xlink" x="0px" y="0px"
	 width="150px" height="66.375px" viewBox="0 0 150 66.375" enable-background="new 0 0 150 66.375" xml:space="preserve">
<g>
	<g>
		<g>
			<g>
				<path fill="#FFFFFF" d="M13.342,12.486c-0.212-0.217-0.47-0.478-0.676-0.72c-0.004,0.003-0.005,0.004-0.009,0.008
					c0.119,0.277,0.241,0.593,0.347,0.896c0.151,0.412,0.229,0.616,0.39,1.022c-0.111,0.103-0.167,0.155-0.278,0.261
					c-0.381-0.192-0.574-0.285-0.961-0.469c-0.287-0.139-0.584-0.296-0.846-0.45c-0.002,0.003-0.003,0.004-0.006,0.006
					c0.208,0.228,0.458,0.504,0.669,0.747c0.249,0.285,0.374,0.428,0.624,0.712c-0.131,0.132-0.197,0.199-0.327,0.332
					c-0.625-0.706-0.935-1.062-1.551-1.777c0.2-0.203,0.3-0.303,0.503-0.5c0.373,0.164,0.558,0.249,0.926,0.42
					c0.263,0.129,0.518,0.273,0.748,0.417c0.003-0.004,0.005-0.006,0.008-0.009c-0.119-0.236-0.247-0.513-0.352-0.791
					c-0.14-0.384-0.207-0.577-0.337-0.964c0.206-0.185,0.31-0.276,0.518-0.455c0.661,0.672,0.99,1.01,1.643,1.689
					c-0.146,0.123-0.218,0.185-0.362,0.311C13.745,12.898,13.61,12.76,13.342,12.486z"/>
				<path fill="#FFFFFF" d="M13.832,10.502c0.08,0.099,0.051,0.251-0.089,0.364c-0.135,0.108-0.287,0.102-0.368,0.002
					c-0.084-0.103-0.056-0.258,0.082-0.367C13.596,10.39,13.75,10.401,13.832,10.502z M14.768,12.537
					c-0.428-0.528-0.643-0.791-1.071-1.318c0.161-0.131,0.243-0.196,0.406-0.325c0.419,0.535,0.628,0.801,1.048,1.336
					C14.996,12.351,14.919,12.412,14.768,12.537z"/>
				<path fill="#FFFFFF" d="M14.068,9.936c0.168-0.127,0.252-0.191,0.423-0.315c0.584,0.8,0.876,1.2,1.46,2
					c-0.156,0.115-0.235,0.173-0.39,0.291C14.964,11.122,14.666,10.727,14.068,9.936z"/>
				<path fill="#FFFFFF" d="M15.579,9.227c0.073,0.104,0.035,0.253-0.112,0.355c-0.141,0.097-0.291,0.079-0.364-0.026
					c-0.077-0.108-0.039-0.26,0.104-0.359C15.353,9.097,15.503,9.12,15.579,9.227z M16.375,11.317
					c-0.391-0.555-0.586-0.834-0.977-1.39c0.168-0.119,0.252-0.176,0.422-0.292c0.381,0.563,0.571,0.843,0.953,1.406
					C16.613,11.151,16.534,11.205,16.375,11.317z"/>
				<path fill="#FFFFFF" d="M16.505,8.61c0.103,0.165,0.154,0.247,0.256,0.412c0.164-0.103,0.245-0.152,0.409-0.251
					c0.066,0.109,0.1,0.164,0.167,0.275c-0.163,0.098-0.244,0.147-0.405,0.248c0.159,0.255,0.238,0.381,0.397,0.636
					c0.108,0.175,0.22,0.232,0.376,0.136c0.07-0.043,0.118-0.083,0.149-0.116c0.071,0.111,0.106,0.166,0.176,0.277
					c-0.047,0.056-0.144,0.135-0.272,0.216c-0.148,0.091-0.3,0.126-0.422,0.102c-0.137-0.028-0.261-0.13-0.382-0.318
					c-0.173-0.268-0.26-0.402-0.434-0.67c-0.096,0.062-0.143,0.094-0.238,0.156c-0.071-0.107-0.107-0.16-0.177-0.268
					c0.096-0.063,0.145-0.095,0.241-0.159c-0.083-0.128-0.125-0.193-0.208-0.322C16.282,8.822,16.356,8.75,16.505,8.61z"/>
				<path fill="#FFFFFF" d="M19.277,9.523c-0.047-0.061-0.07-0.09-0.116-0.151c-0.005,0.002-0.007,0.003-0.011,0.006
					c-0.04,0.172-0.166,0.348-0.376,0.467c-0.329,0.186-0.637,0.083-0.769-0.14c-0.219-0.369,0.046-0.785,0.68-1.123
					c-0.006-0.01-0.009-0.014-0.014-0.025c-0.053-0.098-0.188-0.237-0.491-0.067c-0.17,0.095-0.32,0.24-0.399,0.372
					c-0.089-0.077-0.134-0.115-0.224-0.192c0.087-0.141,0.275-0.334,0.55-0.487c0.557-0.309,0.881-0.081,1.051,0.247
					c0.113,0.218,0.169,0.327,0.283,0.544c0.071,0.136,0.147,0.266,0.212,0.35C19.502,9.402,19.428,9.441,19.277,9.523z
					 M18.829,8.822c-0.307,0.157-0.56,0.378-0.432,0.603c0.083,0.145,0.226,0.152,0.358,0.078c0.166-0.093,0.235-0.258,0.215-0.385
					c-0.004-0.032-0.018-0.066-0.031-0.091C18.895,8.944,18.873,8.904,18.829,8.822z"/>
				<path fill="#FFFFFF" d="M19.561,8.08c-0.103-0.207-0.179-0.352-0.258-0.483c0.156-0.078,0.233-0.116,0.389-0.19
					c0.063,0.114,0.094,0.171,0.156,0.285c0.005-0.002,0.009-0.004,0.014-0.007c-0.017-0.258,0.14-0.468,0.332-0.555
					c0.044-0.021,0.071-0.029,0.111-0.04c0.066,0.147,0.1,0.222,0.167,0.369c-0.04,0.01-0.082,0.021-0.137,0.046
					c-0.215,0.099-0.304,0.291-0.259,0.479c0.009,0.038,0.022,0.083,0.043,0.126c0.151,0.317,0.227,0.477,0.378,0.793
					c-0.17,0.082-0.254,0.122-0.423,0.206C19.869,8.697,19.767,8.491,19.561,8.08z"/>
				<path fill="#FFFFFF" d="M20.989,6.819c0.273,0.28,0.408,0.421,0.674,0.705c0.076,0.082,0.16,0.187,0.222,0.268
					c0.004-0.001,0.007-0.003,0.011-0.004c-0.008-0.102-0.023-0.232-0.032-0.348c-0.025-0.381-0.037-0.571-0.054-0.954
					c0.198-0.078,0.298-0.115,0.497-0.188c-0.023,0.502-0.031,0.753-0.04,1.253c-0.012,0.686-0.063,1.011-0.193,1.254
					c-0.108,0.204-0.255,0.331-0.355,0.391c-0.097-0.117-0.145-0.175-0.242-0.291c0.065-0.048,0.14-0.125,0.202-0.216
					c0.056-0.082,0.112-0.217,0.128-0.347c0.005-0.036,0.007-0.063-0.001-0.082c-0.006-0.017-0.019-0.037-0.056-0.067
					c-0.492-0.471-0.744-0.702-1.261-1.155C20.688,6.947,20.789,6.905,20.989,6.819z"/>
				<path fill="#FFFFFF" d="M24.172,7.452c-0.523-0.821-0.793-1.228-1.354-2.03c0.203-0.07,0.305-0.103,0.509-0.168
					c0.231,0.375,0.345,0.562,0.569,0.939c0.15,0.253,0.298,0.521,0.407,0.733c0.003-0.001,0.004-0.001,0.007-0.002
					c-0.031-0.249-0.043-0.538-0.056-0.843c-0.012-0.441-0.016-0.661-0.019-1.103c0.203-0.059,0.304-0.086,0.507-0.142
					c0.219,0.389,0.327,0.584,0.539,0.976c0.136,0.253,0.253,0.493,0.354,0.73c0.003,0,0.004-0.001,0.007-0.002
					c-0.019-0.261-0.025-0.537-0.025-0.831c0.003-0.44,0.008-0.66,0.021-1.1c0.198-0.047,0.297-0.07,0.496-0.114
					c-0.083,0.981-0.115,1.472-0.155,2.45c-0.193,0.048-0.29,0.072-0.483,0.124c-0.216-0.4-0.324-0.6-0.547-0.997
					c-0.136-0.242-0.242-0.444-0.342-0.681c-0.004,0.001-0.005,0.001-0.008,0.003c0.022,0.254,0.034,0.486,0.033,0.767
					c0.005,0.459,0.009,0.688,0.022,1.145C24.461,7.362,24.364,7.392,24.172,7.452z"/>
				<path fill="#FFFFFF" d="M26.908,4.514c0.027,0.125-0.061,0.247-0.23,0.281c-0.161,0.034-0.288-0.042-0.315-0.168
					c-0.028-0.13,0.062-0.253,0.226-0.286C26.755,4.306,26.881,4.387,26.908,4.514z M26.845,6.745
					c-0.142-0.664-0.213-0.995-0.356-1.66c0.193-0.042,0.29-0.061,0.484-0.1c0.132,0.667,0.197,1,0.329,1.667
					C27.119,6.687,27.027,6.706,26.845,6.745z"/>
				<path fill="#FFFFFF" d="M29.164,3.854c0.095,0.793,0.143,1.19,0.238,1.984c0.021,0.173,0.051,0.36,0.072,0.472
					c-0.165,0.02-0.247,0.03-0.41,0.052c-0.021-0.105-0.032-0.158-0.054-0.264c-0.003,0-0.005,0-0.008,0.001
					c-0.084,0.201-0.286,0.348-0.549,0.39c-0.43,0.066-0.83-0.212-0.927-0.725c-0.104-0.557,0.232-0.965,0.693-1.036
					c0.264-0.041,0.467,0.03,0.57,0.144c0.003-0.001,0.004-0.001,0.008-0.001c-0.052-0.381-0.078-0.573-0.13-0.953
					C28.865,3.89,28.965,3.877,29.164,3.854z M28.866,5.389c-0.005-0.035-0.014-0.077-0.026-0.109
					c-0.062-0.158-0.235-0.274-0.455-0.241c-0.307,0.046-0.438,0.316-0.386,0.63c0.051,0.306,0.253,0.501,0.545,0.457
					c0.189-0.028,0.334-0.173,0.358-0.358c0.005-0.04,0.004-0.082-0.002-0.126C28.887,5.54,28.88,5.49,28.866,5.389z"/>
				<path fill="#FFFFFF" d="M31.646,5.27c0.026,0.625-0.435,0.922-0.897,0.957c-0.516,0.038-0.945-0.249-1.002-0.789
					c-0.059-0.556,0.32-0.941,0.903-0.983C31.225,4.413,31.625,4.754,31.646,5.27z M30.233,5.379
					c0.029,0.326,0.225,0.557,0.508,0.536c0.265-0.019,0.436-0.27,0.415-0.61c-0.015-0.265-0.166-0.562-0.495-0.537
					C30.319,4.792,30.208,5.098,30.233,5.379z"/>
				<path fill="#FFFFFF" d="M32.275,4.417c0.086,0.306,0.129,0.46,0.211,0.767c0.045,0.181,0.089,0.366,0.125,0.55
					c0.003,0,0.004,0,0.009,0c0.036-0.184,0.095-0.373,0.149-0.548c0.097-0.31,0.147-0.464,0.248-0.773
					c0.159,0,0.239,0.001,0.397,0.004c0.091,0.303,0.135,0.455,0.222,0.758c0.053,0.2,0.097,0.386,0.133,0.572
					c0.004,0,0.005,0,0.008,0c0.036-0.184,0.084-0.367,0.141-0.564c0.095-0.298,0.144-0.447,0.241-0.744
					c0.192,0.008,0.288,0.013,0.48,0.025c-0.282,0.664-0.417,0.998-0.672,1.667c-0.171-0.006-0.257-0.009-0.428-0.014
					c-0.081-0.277-0.122-0.417-0.207-0.694c-0.055-0.179-0.094-0.34-0.135-0.546c-0.003,0-0.005,0-0.008,0
					c-0.042,0.209-0.094,0.376-0.148,0.543c-0.097,0.276-0.144,0.414-0.237,0.69c-0.172,0-0.258,0.001-0.43,0.004
					c-0.228-0.676-0.348-1.013-0.602-1.684C31.974,4.424,32.075,4.422,32.275,4.417z"/>
				<path fill="#FFFFFF" d="M34.795,5.78c0.103,0.066,0.298,0.143,0.464,0.156c0.204,0.017,0.301-0.05,0.312-0.162
					c0.011-0.114-0.06-0.181-0.284-0.273c-0.354-0.145-0.496-0.335-0.481-0.532c0.022-0.296,0.317-0.516,0.764-0.477
					c0.214,0.019,0.396,0.086,0.501,0.15c-0.051,0.117-0.076,0.175-0.126,0.292c-0.077-0.049-0.225-0.12-0.394-0.135
					c-0.172-0.016-0.272,0.05-0.281,0.154c-0.008,0.108,0.078,0.166,0.31,0.265c0.33,0.14,0.472,0.319,0.447,0.566
					c-0.031,0.303-0.315,0.497-0.797,0.457c-0.22-0.019-0.414-0.08-0.545-0.158C34.729,5.962,34.75,5.901,34.795,5.78z"/>
				<path fill="#FFFFFF" d="M37.75,5.851c-0.133,0.248-0.198,0.372-0.327,0.622c-0.188-0.03-0.282-0.044-0.472-0.071
					c0.456-0.885,0.696-1.323,1.203-2.19c0.251,0.043,0.377,0.066,0.627,0.114c0.171,0.991,0.243,1.487,0.359,2.476
					c-0.194-0.043-0.292-0.064-0.486-0.104c-0.037-0.279-0.056-0.418-0.096-0.698C38.236,5.935,38.073,5.905,37.75,5.851z
					 M38.542,5.665c-0.037-0.243-0.056-0.365-0.096-0.607c-0.024-0.15-0.038-0.315-0.054-0.457c-0.002,0-0.004,0-0.007-0.001
					c-0.065,0.127-0.132,0.28-0.204,0.41c-0.122,0.213-0.183,0.32-0.301,0.535C38.145,5.589,38.277,5.613,38.542,5.665z"/>
				<path fill="#FFFFFF" d="M39.521,6.484c0.09,0.082,0.271,0.19,0.435,0.231c0.199,0.05,0.307,0,0.335-0.108
					c0.03-0.112-0.028-0.189-0.235-0.317c-0.328-0.201-0.438-0.412-0.391-0.604c0.07-0.289,0.398-0.457,0.836-0.343
					c0.208,0.054,0.379,0.15,0.473,0.23c-0.07,0.107-0.105,0.16-0.174,0.268c-0.069-0.063-0.203-0.156-0.368-0.199
					c-0.169-0.044-0.279,0.004-0.305,0.106C40.1,5.853,40.176,5.924,40.39,6.06c0.304,0.193,0.416,0.392,0.35,0.633
					c-0.079,0.293-0.393,0.437-0.864,0.319c-0.215-0.054-0.398-0.147-0.515-0.246C39.424,6.652,39.456,6.596,39.521,6.484z"/>
				<path fill="#FFFFFF" d="M41.062,6.89c0.087,0.087,0.262,0.205,0.421,0.255c0.198,0.061,0.309,0.017,0.343-0.089
					c0.036-0.11-0.02-0.19-0.22-0.329c-0.317-0.219-0.416-0.437-0.358-0.625c0.085-0.284,0.423-0.435,0.855-0.297
					c0.206,0.065,0.371,0.172,0.46,0.257c-0.075,0.103-0.113,0.154-0.187,0.257c-0.065-0.066-0.195-0.167-0.358-0.219
					c-0.166-0.054-0.279-0.011-0.31,0.089c-0.032,0.103,0.042,0.179,0.247,0.326c0.294,0.21,0.396,0.416,0.316,0.653
					c-0.097,0.289-0.417,0.414-0.882,0.27c-0.213-0.065-0.391-0.169-0.502-0.274C40.957,7.053,40.992,6.999,41.062,6.89z"/>
				<path fill="#FFFFFF" d="M44.452,7.604c-0.245,0.574-0.795,0.643-1.234,0.474c-0.489-0.189-0.758-0.632-0.578-1.146
					c0.184-0.526,0.697-0.712,1.249-0.498C44.435,6.645,44.655,7.129,44.452,7.604z M43.11,7.089
					c-0.114,0.308-0.034,0.6,0.235,0.704c0.25,0.097,0.514-0.054,0.644-0.371c0.1-0.246,0.088-0.579-0.224-0.7
					C43.441,6.596,43.208,6.824,43.11,7.089z"/>
				<path fill="#FFFFFF" d="M45.727,9.089c-0.107-0.008-0.302-0.054-0.511-0.155c-0.525-0.25-0.736-0.708-0.525-1.19
					c0.204-0.467,0.736-0.674,1.361-0.373c0.164,0.079,0.317,0.193,0.398,0.285c-0.09,0.098-0.134,0.148-0.223,0.247
					c-0.058-0.063-0.146-0.147-0.305-0.224c-0.34-0.163-0.645-0.034-0.771,0.248c-0.142,0.315,0,0.602,0.294,0.742
					c0.149,0.072,0.267,0.095,0.366,0.106C45.779,8.901,45.761,8.964,45.727,9.089z"/>
				<path fill="#FFFFFF" d="M47.49,7.615c-0.059,0.112-0.206,0.149-0.362,0.067c-0.149-0.079-0.201-0.219-0.142-0.333
					c0.061-0.118,0.21-0.155,0.362-0.076C47.503,7.355,47.551,7.499,47.49,7.615z M46.016,9.293c0.312-0.604,0.468-0.906,0.779-1.51
					c0.179,0.093,0.268,0.14,0.446,0.235c-0.322,0.599-0.481,0.898-0.803,1.497C46.27,9.425,46.185,9.381,46.016,9.293z"/>
				<path fill="#FFFFFF" d="M47.796,10.294c0.028-0.07,0.043-0.106,0.071-0.177c-0.004-0.002-0.007-0.003-0.01-0.006
					c-0.169,0.053-0.386,0.032-0.595-0.09c-0.327-0.19-0.393-0.508-0.268-0.733c0.208-0.376,0.697-0.358,1.313,0.02
					c0.006-0.009,0.009-0.014,0.014-0.023c0.058-0.095,0.11-0.283-0.191-0.46c-0.168-0.099-0.37-0.154-0.521-0.156
					c0.021-0.116,0.032-0.174,0.052-0.291c0.166,0.005,0.425,0.068,0.697,0.229c0.551,0.326,0.521,0.723,0.324,1.036
					c-0.13,0.208-0.197,0.312-0.327,0.519c-0.082,0.13-0.155,0.261-0.194,0.361C48.016,10.43,47.942,10.384,47.796,10.294z
					 M48.174,9.553c-0.293-0.187-0.612-0.293-0.741-0.07c-0.083,0.145-0.018,0.271,0.114,0.349c0.165,0.097,0.342,0.072,0.443-0.008
					c0.026-0.021,0.047-0.048,0.063-0.072C48.101,9.672,48.125,9.632,48.174,9.553z"/>
				<path fill="#FFFFFF" d="M50.228,9.267c-0.109,0.16-0.163,0.241-0.272,0.401c0.159,0.108,0.239,0.164,0.397,0.276
					c-0.074,0.105-0.111,0.157-0.185,0.262c-0.157-0.11-0.235-0.165-0.394-0.273c-0.169,0.248-0.253,0.373-0.422,0.62
					c-0.115,0.17-0.124,0.295,0.028,0.401c0.068,0.047,0.126,0.075,0.168,0.091c-0.073,0.109-0.11,0.165-0.183,0.273
					c-0.071-0.021-0.184-0.079-0.309-0.165c-0.145-0.1-0.238-0.225-0.265-0.347c-0.029-0.138,0.014-0.293,0.137-0.478
					c0.176-0.268,0.263-0.401,0.438-0.668c-0.094-0.063-0.143-0.094-0.238-0.155c0.069-0.108,0.104-0.163,0.173-0.27
					c0.097,0.063,0.146,0.094,0.242,0.158c0.084-0.128,0.126-0.193,0.211-0.321C49.944,9.148,50.039,9.188,50.228,9.267z"/>
				<path fill="#FFFFFF" d="M51.389,10.113c-0.075,0.103-0.228,0.116-0.372,0.009c-0.139-0.102-0.171-0.25-0.096-0.355
					c0.078-0.108,0.234-0.12,0.375-0.016C51.438,9.856,51.465,10.007,51.389,10.113z M49.67,11.545
					c0.398-0.55,0.598-0.826,0.996-1.376c0.167,0.121,0.25,0.182,0.415,0.306c-0.407,0.543-0.611,0.815-1.018,1.359
					C49.907,11.717,49.828,11.659,49.67,11.545z"/>
				<path fill="#FFFFFF" d="M52.459,12.676c-0.414,0.467-0.976,0.343-1.353,0.03c-0.42-0.349-0.549-0.864-0.216-1.294
					c0.34-0.442,0.897-0.447,1.374-0.053C52.732,11.749,52.802,12.29,52.459,12.676z M51.301,11.722
					c-0.205,0.256-0.215,0.563,0.016,0.755c0.216,0.179,0.522,0.125,0.744-0.135c0.172-0.201,0.263-0.525-0.006-0.748
					C51.775,11.362,51.478,11.501,51.301,11.722z"/>
				<path fill="#FFFFFF" d="M52.988,12.712c0.132-0.145,0.24-0.268,0.329-0.385c0.135,0.124,0.203,0.186,0.336,0.312
					c-0.062,0.081-0.093,0.122-0.156,0.203c0.004,0.003,0.006,0.005,0.01,0.008c0.155-0.036,0.43,0.003,0.677,0.246
					c0.26,0.255,0.386,0.661,0,1.034c-0.29,0.28-0.434,0.421-0.724,0.701c-0.139-0.144-0.208-0.214-0.35-0.354
					c0.271-0.272,0.407-0.407,0.677-0.679c0.172-0.173,0.225-0.383,0.022-0.58c-0.148-0.145-0.337-0.153-0.465-0.098
					c-0.038,0.017-0.077,0.051-0.11,0.087c-0.274,0.29-0.411,0.436-0.684,0.726c-0.145-0.137-0.218-0.205-0.365-0.338
					C52.507,13.241,52.667,13.064,52.988,12.712z"/>
			</g>
		</g>
		<g>
			<path fill="#EBECED" d="M55.973,31.899c0.281,0.872,0.808,1.17,1.739,1.118c1.326-0.077,2.68-0.2,3.987,0.208
				c0.393,0.123,0.963,0.21,0.946,0.694c-0.018,0.461-0.575,0.549-0.979,0.673c-1.278,0.39-2.593,0.252-3.891,0.21
				c-0.858-0.028-1.544,0.059-1.79,1.122c0.274,0.075,0.859-0.072,0.706,0.581c-0.151,0.641-0.627,0.392-0.932,0.287
				c-0.462-0.156-0.573,0.14-0.749,0.403c-0.813,1.219-1.622,2.44-2.441,3.656c-0.268,0.394-0.544,0.803-1.194,0.715
				c0.556-1.579,1.088-3.096,1.626-4.611c0.042-0.119,0.145-0.221,0.185-0.342c0.463-1.394,0.169-1.677-1.236-1.859
				c-1.474-0.193-2.668-0.159-3.187,1.522c-0.08,0.257-0.366,0.418-0.641,0.28c-0.279-0.143-0.044-0.408-0.044-0.613
				c0-0.191,0.075-0.383,0.125-0.572c0.176-0.672,0.275-1.303-0.821-1.429c1.39-0.329,0.852-1.191,0.735-1.954
				c-0.037-0.239-0.332-0.594,0.089-0.749c0.349-0.128,0.534,0.165,0.648,0.445c0.504,1.239,1.315,1.843,2.689,1.35
				c0.117-0.042,0.259-0.012,0.39-0.014c1.453-0.023,1.762-0.584,1.203-2c-0.572-1.448-1.069-2.923-1.604-4.387
				c-0.04-0.113-0.179-0.216-0.061-0.339c0.131-0.137,0.298-0.083,0.449-0.02c0.354,0.146,0.543,0.462,0.741,0.758
				c0.777,1.164,1.548,2.333,2.311,3.506c0.219,0.338,0.383,0.649,0.908,0.461c0.282-0.099,0.729-0.25,0.825,0.338
				C56.811,31.992,56.267,31.784,55.973,31.899z"/>
			<path fill="#EBECED" d="M31.761,36.932L31.761,36.932z"/>
			<path fill="#EBECED" d="M31.761,36.932L31.761,36.932z"/>
			<path fill="#EBECED" d="M45.766,33.366c-3.377,0-6.754,0-10.132,0c0-0.032,0-0.065-0.001-0.098c3.379,0,6.758,0,10.138,0
				C45.769,33.301,45.768,33.333,45.766,33.366z"/>
			<path fill="#EBECED" d="M37.011,31.675c3.311,0,6.624,0,9.936,0c0,0.032,0,0.065,0,0.098c-3.314,0-6.627,0-9.942,0
				C37.007,31.74,37.009,31.707,37.011,31.675z"/>
			<path fill="#EBECED" d="M46.925,35.518c-2.985,0-5.969,0-8.955,0c0-0.032,0-0.064,0-0.098c2.997,0,5.993,0,8.99,0
				C46.949,35.453,46.937,35.485,46.925,35.518z"/>
			<path fill="#EBECED" d="M37.648,25.763c-0.192-0.003-0.385-0.004-0.577-0.006"/>
			<path fill="#EBECED" d="M37.648,25.763c-0.192-0.003-0.385-0.004-0.577-0.006"/>
			<path fill="#EBECED" d="M38.271,44.771c-0.008-0.002-0.016-0.005-0.024-0.007c0.004,0,0.008-0.003,0.012-0.004L38.271,44.771z"/>
			<path fill="#EBECED" d="M41.23,44.548c-0.008,0.004-0.016,0.008-0.023,0.013l-0.004-0.013H41.23z"/>
			<path fill="#EBECED" d="M41.207,44.561c-0.004-0.001-0.008-0.001-0.011-0.004c0.001-0.001,0.003-0.005,0.007-0.009L41.207,44.561
				z"/>
			<g>
				<path fill="#EBECED" d="M43.847,18.707c0-0.21-0.028-0.413-0.081-0.605h8.948v-1.078h-9.604
					c-0.308-0.284-0.699-0.484-1.17-0.565c0-0.292,0-0.495,0-0.495v-0.015c0-0.012,0.023-0.014,0.023-0.026
					c-0.019-0.625-0.511-1.122-1.141-1.122h-4.74v1.886c-0.741,0.386-1.202,1.146-1.202,2.02c0,0.009,0.007,0.018,0.007,0.026
					c0.14-0.017,0.288-0.026,0.432-0.026H43.847L43.847,18.707z"/>
				<path fill="#EBECED" d="M50.491,24.952v-0.019c1.212-0.2,2.155-1.249,2.155-2.529v-0.022c0-1.425-1.132-2.598-2.559-2.598
					H35.318c-1.426,0-2.604,1.172-2.604,2.598v0.022c0,1.281,0.943,2.33,2.155,2.529v0.019c0,0.398,0.118,0.771,0.306,1.091
					c0.376,0.646,1.086,1.081,1.888,1.081h11.279c0.802,0,1.491-0.435,1.866-1.081C50.396,25.724,50.491,25.351,50.491,24.952z
					 M44.527,25.997c-0.604,0-1.095-0.489-1.095-1.094c0-0.605,0.491-1.095,1.095-1.095c0.605,0,1.095,0.49,1.095,1.095
					C45.623,25.507,45.132,25.997,44.527,25.997z M39.729,24.902c0-0.605,0.49-1.095,1.095-1.095c0.605,0,1.095,0.49,1.095,1.095
					c0,0.605-0.49,1.094-1.095,1.094C40.22,25.997,39.729,25.507,39.729,24.902z M36.026,24.902c0-0.605,0.49-1.095,1.094-1.095
					c0.605,0,1.095,0.49,1.095,1.095c0,0.605-0.49,1.094-1.095,1.094C36.517,25.997,36.026,25.507,36.026,24.902z M48.232,25.997
					c-0.605,0-1.095-0.489-1.095-1.094c0-0.605,0.49-1.095,1.095-1.095c0.604,0,1.095,0.49,1.095,1.095
					C49.327,25.507,48.836,25.997,48.232,25.997z"/>
			</g>
			<g>
				<path fill="#EBECED" d="M47.326,44.333c-0.013-0.328-0.114-0.664-0.28-0.932l2.565,0.003l0-0.876l-4.145-0.005l-0.849-0.003
					c-0.061-0.532-0.514-0.931-1.064-0.932l-1.226-0.001l0.004-3.231c0-0.242-0.196-0.439-0.438-0.439
					c-0.243,0-0.439,0.196-0.439,0.438l-0.004,3.231l-2.246-0.003l-0.001,0.932l-2.739-0.004l-0.002,1.81L47.326,44.333z"/>
				<path fill="#EBECED" d="M33.724,45.194l-0.001,1.478c-0.001,0.666,0.565,1.208,1.23,1.208l13.403,0.016
					c0.486,0,0.904-0.278,1.096-0.692c0.031-0.067,0.342-1.004,0.679-1.989L33.724,45.194z M35.327,47.24
					c0,0.03-0.027,0.054-0.06,0.054h-0.591c-0.032,0-0.058-0.025-0.058-0.054l0.001-0.542c0-0.029,0.026-0.053,0.058-0.053h0.592
					c0.032,0,0.058,0.024,0.058,0.053V47.24z M36.795,47.242c0.001,0.029-0.026,0.053-0.058,0.053h-0.592
					c-0.032,0-0.058-0.024-0.058-0.053l0.001-0.543c0-0.029,0.026-0.053,0.058-0.053l0.591,0.001
					c0.032-0.001,0.058,0.023,0.059,0.054L36.795,47.242z M38.264,47.243c0,0.029-0.026,0.055-0.059,0.055l-0.591-0.002
					c-0.033,0-0.059-0.023-0.059-0.053l0.001-0.542c0-0.029,0.026-0.054,0.059-0.054h0.592c0.031,0.003,0.057,0.024,0.057,0.055
					L38.264,47.243z M39.733,47.245c0,0.03-0.026,0.054-0.058,0.054l-0.592-0.001c-0.032,0-0.058-0.023-0.058-0.054l0-0.542
					c0-0.028,0.026-0.052,0.058-0.052l0.592,0.001c0.032,0,0.058,0.023,0.058,0.053L39.733,47.245z M41.202,47.248
					c0,0.028-0.026,0.053-0.058,0.053L40.553,47.3c-0.032,0-0.059-0.023-0.059-0.053l0.001-0.543c0-0.029,0.026-0.051,0.058-0.051
					h0.592c0.032,0,0.058,0.024,0.058,0.053L41.202,47.248z M42.671,47.249c0,0.03-0.026,0.054-0.058,0.054h-0.592
					c-0.033-0.002-0.058-0.025-0.058-0.055l0-0.541c0-0.029,0.027-0.052,0.058-0.052h0.592c0.032,0,0.059,0.023,0.058,0.052
					L42.671,47.249z M44.14,47.251c0,0.029-0.026,0.053-0.058,0.053H43.49c-0.032,0-0.058-0.023-0.058-0.053l0-0.543
					c0-0.028,0.026-0.052,0.058-0.052h0.592c0.033,0.001,0.058,0.023,0.058,0.053L44.14,47.251z M45.608,47.252
					c0,0.029-0.026,0.055-0.058,0.055l-0.592-0.002c-0.032,0-0.058-0.023-0.058-0.053l0.001-0.543c0-0.027,0.026-0.052,0.058-0.052
					l0.592,0.001c0.032,0,0.058,0.025,0.058,0.054L45.608,47.252z M47.078,47.254c0,0.029-0.026,0.054-0.058,0.054l-0.592-0.001
					c-0.032,0-0.058-0.023-0.058-0.054l0-0.54c0-0.029,0.027-0.055,0.058-0.055l0.592,0.002c0.032,0,0.058,0.024,0.058,0.053
					L47.078,47.254z M48.547,47.256c0,0.028-0.027,0.053-0.058,0.053l-0.592-0.001c-0.033,0-0.058-0.023-0.058-0.054l0-0.54
					c0-0.029,0.026-0.053,0.059-0.053h0.591c0.032,0,0.058,0.024,0.058,0.053L48.547,47.256z"/>
			</g>
		</g>
		<g>
			<path fill="#FFFFFF" d="M18.036,47.653c0,0-0.405-0.313-0.412-0.7c-0.006-0.39,0.442-2.395-0.526-2.569
				c-0.968-0.174-1.222-0.229-1.222-0.229s-0.299-0.047-0.237-0.482c0.061-0.436,1.751-7.337,1.464-7.69
				c-3.341-4.115-2.004-12.502,2.108-12.53c1.182-0.008,4.365,0,4.365,0c2.174,0.445,3.946,3.822,4.125,5.387
				c0.039,0.339-2.187,0.1-2.474,2.31c0.021,1.113,0.898,1.222,0.416,2.307c-0.767,0.757-2.044,2.591-2.044,2.591
				s1.098,5.859,1.034,7.528c-0.049,1.284-2.45,1.048-2.45,1.048s-0.037,2.331-0.249,2.953
				C21.818,47.703,18.036,47.653,18.036,47.653z"/>
			<path fill="#FFFFFF" d="M25.248,47.575c0,0,0.1-4.453,0.098-5.296c-0.545-0.828-1.301-4.302-0.813-5.84
				c0.487-1.539,0.548-2.367,2.556-2.751c0.244,0.008,1.805,0.077,1.805,0.077s1.576,0.911,1.872,2.281
				c0.123,0.578,0.711,1.841-1.428,6.233v5.296H25.248z"/>
			<circle fill="#FFFFFF" cx="27.745" cy="31.525" r="1.539"/>
			<path fill="#FFFFFF" d="M13.419,47.444"/>
			<path fill="#FFFFFF" d="M19.642,22.709h3.722c0,0,1.438,0.137,1.079-1.428c-0.359-1.565-1.514-3.66-2.504-4.164
				c-0.305-0.112-0.472-0.314-0.999,0c-0.527,0.314-1.844,0.704-2.302,4.781C18.555,22.75,19.184,22.68,19.642,22.709z"/>
			<g>
				<path fill="#FFFFFF" d="M10.193,47.915c0,0-0.295-0.229-0.299-0.51c-0.005-0.283,0.321-2.558-0.384-2.686
					c-0.705-0.126-0.89-0.167-0.89-0.167s-0.217-0.033-0.172-0.351c0.044-0.316,1.275-5.343,1.066-5.6
					c-2.434-2.999-1.459-9.105,1.535-9.126c0.861-0.007,3.214,0.061,3.214,0.061c0.906-0.019,0.021,2.982,0.761,4.062
					c0.864,1.258,0.562,3.024,0.708,3.163c0.234,0.217-1.487,1.887-1.487,1.887s0.799,4.267,0.752,5.482
					c-0.036,0.937-1.784,0.764-1.784,0.764s-0.027,2.511-0.181,2.964C12.948,47.951,10.193,47.915,10.193,47.915z"/>
				<path fill="#FFFFFF" d="M11.363,28.936h2.71c0,0,1.048,0.1,0.786-1.041c-0.262-1.14-1.104-2.665-1.825-3.032
					c-0.222-0.082-0.342-0.229-0.727,0c-0.385,0.229-1.343,0.513-1.677,3.482C10.571,28.966,11.029,28.914,11.363,28.936z"/>
			</g>
		</g>
		<polygon fill="#A5A5A5" points="10.623,56.349 55.15,56.349 51.127,60.066 14.451,60.066 		"/>
		<g>
			<polygon fill="#FFFFFF" points="6.865,52.618 58.332,52.618 61.846,47.49 3.717,47.49 			"/>
			<polygon fill="#8C8C8C" points="6.847,52.633 58.734,52.633 55.632,56.349 10.336,56.349 			"/>
			<path fill="none" stroke="#FFFFFF" stroke-width="0.75" stroke-miterlimit="10" d="M65.002,33.351
				c0,17.765-14.39,32.154-32.135,32.154c-17.752,0-32.142-14.39-32.142-32.154c0-17.761,14.39-32.151,32.142-32.151
				C50.612,1.199,65.002,15.59,65.002,33.351z"/>
		</g>
		<text transform="matrix(1 0 0 1 28.1655 9.9819)" fill="#FFFFFF" font-family="'MyriadPro-Bold'" font-size="2.3518">(M.I.W.A)</text>
	</g>
	
		<text transform="matrix(1 0 0 1 73.3687 45.6846)" fill="#FFFFFF" font-family="'MyriadPro-Semibold'" font-size="28.041" letter-spacing="1">M</text>
	
		<text transform="matrix(1 0 0 1 97.959 45.6846)" fill="#FFFFFF" font-family="'MyriadPro-Semibold'" font-size="23.813" letter-spacing="1">i</text>
	
		<text transform="matrix(1 0 0 1 105.2461 45.6846)" fill="#FFFFFF" font-family="'MyriadPro-Semibold'" font-size="28.041" letter-spacing="1">WA</text>
</g>
</svg>
